<svg width="595" height="842" viewBox="0 0 595 842" fill="none" xmlns="http://www.w3.org/2000/svg">
<rect x="2.5" y="2.5" width="590" height="837" fill="white"/>
<path d="M110.444 422.76C107.164 422.867 104.364 423.133 102.044 423.56C99.7504 423.96 97.8704 424.493 96.4038 425.16C94.9638 425.827 93.9104 426.613 93.2438 427.52C92.6038 428.427 92.2838 429.44 92.2838 430.56C92.2838 431.627 92.4571 432.547 92.8038 433.32C93.1504 434.093 93.6171 434.733 94.2038 435.24C94.8171 435.72 95.5238 436.08 96.3238 436.32C97.1504 436.533 98.0304 436.64 98.9638 436.64C100.217 436.64 101.364 436.52 102.404 436.28C103.444 436.013 104.417 435.64 105.324 435.16C106.257 434.68 107.137 434.107 107.964 433.44C108.817 432.773 109.644 432.013 110.444 431.16V422.76ZM87.4438 406.2C89.6838 404.04 92.0971 402.427 94.6838 401.36C97.2704 400.293 100.137 399.76 103.284 399.76C105.55 399.76 107.564 400.133 109.324 400.88C111.084 401.627 112.564 402.667 113.764 404C114.964 405.333 115.87 406.947 116.484 408.84C117.097 410.733 117.404 412.813 117.404 415.08V441H114.244C113.55 441 113.017 440.893 112.644 440.68C112.27 440.44 111.977 439.987 111.764 439.32L110.964 435.48C109.897 436.467 108.857 437.347 107.844 438.12C106.83 438.867 105.764 439.507 104.644 440.04C103.524 440.547 102.324 440.933 101.044 441.2C99.7904 441.493 98.3904 441.64 96.8438 441.64C95.2704 441.64 93.7904 441.427 92.4038 441C91.0171 440.547 89.8038 439.88 88.7638 439C87.7504 438.12 86.9371 437.013 86.3238 435.68C85.7371 434.32 85.4438 432.72 85.4438 430.88C85.4438 429.28 85.8838 427.747 86.7638 426.28C87.6438 424.787 89.0704 423.467 91.0438 422.32C93.0171 421.173 95.5904 420.24 98.7638 419.52C101.937 418.773 105.83 418.347 110.444 418.24V415.08C110.444 411.933 109.764 409.56 108.404 407.96C107.044 406.333 105.057 405.52 102.444 405.52C100.684 405.52 99.2038 405.747 98.0038 406.2C96.8304 406.627 95.8038 407.12 94.9238 407.68C94.0704 408.213 93.3238 408.707 92.6838 409.16C92.0704 409.587 91.4571 409.8 90.8438 409.8C90.3638 409.8 89.9504 409.68 89.6038 409.44C89.2571 409.173 88.9638 408.853 88.7237 408.48L87.4438 406.2ZM134.969 406.36C135.849 405.373 136.783 404.48 137.769 403.68C138.756 402.88 139.796 402.2 140.889 401.64C142.009 401.053 143.183 400.613 144.409 400.32C145.663 400 147.009 399.84 148.449 399.84C150.663 399.84 152.609 400.213 154.289 400.96C155.996 401.68 157.409 402.72 158.529 404.08C159.676 405.413 160.543 407.027 161.129 408.92C161.716 410.813 162.009 412.907 162.009 415.2V441H154.849V415.2C154.849 412.133 154.143 409.76 152.729 408.08C151.343 406.373 149.223 405.52 146.369 405.52C144.263 405.52 142.289 406.027 140.449 407.04C138.636 408.053 136.956 409.427 135.409 411.16V441H128.249V400.48H132.529C133.543 400.48 134.169 400.973 134.409 401.96L134.969 406.36ZM189.939 399.84C192.899 399.84 195.565 400.333 197.939 401.32C200.312 402.307 202.339 403.707 204.019 405.52C205.699 407.333 206.979 409.533 207.859 412.12C208.765 414.68 209.219 417.547 209.219 420.72C209.219 423.92 208.765 426.8 207.859 429.36C206.979 431.92 205.699 434.107 204.019 435.92C202.339 437.733 200.312 439.133 197.939 440.12C195.565 441.08 192.899 441.56 189.939 441.56C186.952 441.56 184.259 441.08 181.859 440.12C179.485 439.133 177.459 437.733 175.779 435.92C174.099 434.107 172.805 431.92 171.899 429.36C171.019 426.8 170.579 423.92 170.579 420.72C170.579 417.547 171.019 414.68 171.899 412.12C172.805 409.533 174.099 407.333 175.779 405.52C177.459 403.707 179.485 402.307 181.859 401.32C184.259 400.333 186.952 399.84 189.939 399.84ZM189.939 436C193.939 436 196.925 434.667 198.899 432C200.872 429.307 201.859 425.56 201.859 420.76C201.859 415.933 200.872 412.173 198.899 409.48C196.925 406.787 193.939 405.44 189.939 405.44C187.912 405.44 186.139 405.787 184.619 406.48C183.125 407.173 181.872 408.173 180.859 409.48C179.872 410.787 179.125 412.4 178.619 414.32C178.139 416.213 177.899 418.36 177.899 420.76C177.899 425.56 178.885 429.307 180.859 432C182.859 434.667 185.885 436 189.939 436ZM224.969 406.36C225.849 405.373 226.783 404.48 227.769 403.68C228.756 402.88 229.796 402.2 230.889 401.64C232.009 401.053 233.183 400.613 234.409 400.32C235.663 400 237.009 399.84 238.449 399.84C240.663 399.84 242.609 400.213 244.289 400.96C245.996 401.68 247.409 402.72 248.529 404.08C249.676 405.413 250.543 407.027 251.129 408.92C251.716 410.813 252.009 412.907 252.009 415.2V441H244.849V415.2C244.849 412.133 244.143 409.76 242.729 408.08C241.343 406.373 239.223 405.52 236.369 405.52C234.263 405.52 232.289 406.027 230.449 407.04C228.636 408.053 226.956 409.427 225.409 411.16V441H218.249V400.48H222.529C223.543 400.48 224.169 400.973 224.409 401.96L224.969 406.36ZM296.803 400.48L274.203 452.96C273.963 453.493 273.656 453.92 273.283 454.24C272.936 454.56 272.39 454.72 271.643 454.72H266.363L273.763 438.64L257.043 400.48H263.203C263.816 400.48 264.296 400.64 264.643 400.96C265.016 401.253 265.27 401.587 265.403 401.96L276.243 427.48C276.67 428.6 277.03 429.773 277.323 431C277.696 429.747 278.096 428.56 278.523 427.44L289.043 401.96C289.203 401.533 289.47 401.187 289.843 400.92C290.243 400.627 290.683 400.48 291.163 400.48H296.803ZM303.093 441V400.48H307.373C308.386 400.48 309.013 400.973 309.253 401.96L309.773 406.12C311.266 404.28 312.946 402.773 314.813 401.6C316.68 400.427 318.84 399.84 321.293 399.84C324.013 399.84 326.213 400.6 327.893 402.12C329.6 403.64 330.826 405.693 331.573 408.28C332.16 406.813 332.906 405.547 333.813 404.48C334.746 403.413 335.786 402.533 336.933 401.84C338.08 401.147 339.293 400.64 340.573 400.32C341.88 400 343.2 399.84 344.533 399.84C346.666 399.84 348.56 400.187 350.213 400.88C351.893 401.547 353.306 402.533 354.453 403.84C355.626 405.147 356.52 406.76 357.133 408.68C357.746 410.573 358.053 412.747 358.053 415.2V441H350.893V415.2C350.893 412.027 350.2 409.627 348.813 408C347.426 406.347 345.426 405.52 342.813 405.52C341.64 405.52 340.52 405.733 339.453 406.16C338.413 406.56 337.493 407.16 336.693 407.96C335.893 408.76 335.253 409.773 334.773 411C334.32 412.2 334.093 413.6 334.093 415.2V441H326.933V415.2C326.933 411.947 326.28 409.52 324.973 407.92C323.666 406.32 321.76 405.52 319.253 405.52C317.493 405.52 315.866 406 314.373 406.96C312.88 407.893 311.506 409.173 310.253 410.8V441H303.093ZM376.394 400.48V441H369.274V400.48H376.394ZM377.914 387.76C377.914 388.453 377.768 389.107 377.474 389.72C377.208 390.307 376.834 390.84 376.354 391.32C375.901 391.773 375.354 392.133 374.714 392.4C374.101 392.667 373.448 392.8 372.754 392.8C372.061 392.8 371.408 392.667 370.794 392.4C370.208 392.133 369.688 391.773 369.234 391.32C368.781 390.84 368.421 390.307 368.154 389.72C367.888 389.107 367.754 388.453 367.754 387.76C367.754 387.067 367.888 386.413 368.154 385.8C368.421 385.16 368.781 384.613 369.234 384.16C369.688 383.68 370.208 383.307 370.794 383.04C371.408 382.773 372.061 382.64 372.754 382.64C373.448 382.64 374.101 382.773 374.714 383.04C375.354 383.307 375.901 383.68 376.354 384.16C376.834 384.613 377.208 385.16 377.474 385.8C377.768 386.413 377.914 387.067 377.914 387.76ZM400.533 441.64C397.333 441.64 394.866 440.747 393.133 438.96C391.426 437.173 390.573 434.6 390.573 431.24V406.44H385.693C385.266 406.44 384.906 406.32 384.613 406.08C384.32 405.813 384.173 405.413 384.173 404.88V402.04L390.813 401.2L392.453 388.68C392.533 388.28 392.706 387.96 392.973 387.72C393.266 387.453 393.64 387.32 394.093 387.32H397.693V401.28H409.413V406.44H397.693V430.76C397.693 432.467 398.106 433.733 398.933 434.56C399.76 435.387 400.826 435.8 402.133 435.8C402.88 435.8 403.52 435.707 404.053 435.52C404.613 435.307 405.093 435.08 405.493 434.84C405.893 434.6 406.226 434.387 406.493 434.2C406.786 433.987 407.04 433.88 407.253 433.88C407.626 433.88 407.96 434.107 408.253 434.56L410.333 437.96C409.106 439.107 407.626 440.013 405.893 440.68C404.16 441.32 402.373 441.64 400.533 441.64ZM451.725 400.48L429.125 452.96C428.885 453.493 428.578 453.92 428.205 454.24C427.858 454.56 427.312 454.72 426.565 454.72H421.285L428.685 438.64L411.965 400.48H418.125C418.738 400.48 419.218 400.64 419.565 400.96C419.938 401.253 420.192 401.587 420.325 401.96L431.165 427.48C431.592 428.6 431.952 429.773 432.245 431C432.618 429.747 433.018 428.56 433.445 427.44L443.965 401.96C444.125 401.533 444.392 401.187 444.765 400.92C445.165 400.627 445.605 400.48 446.085 400.48H451.725ZM477.451 450.68C477.237 450.493 477.091 450.32 477.011 450.16C476.931 450 476.891 449.8 476.891 449.56C476.891 449.373 476.944 449.187 477.051 449C477.184 448.813 477.331 448.64 477.491 448.48C477.757 448.187 478.091 447.8 478.491 447.32C478.917 446.84 479.344 446.267 479.771 445.6C480.197 444.96 480.584 444.24 480.931 443.44C481.304 442.667 481.571 441.84 481.731 440.96C481.651 440.987 481.557 441 481.451 441C481.371 441 481.291 441 481.211 441C479.824 441 478.691 440.547 477.811 439.64C476.957 438.707 476.531 437.52 476.531 436.08C476.531 434.827 476.957 433.76 477.811 432.88C478.691 432 479.851 431.56 481.291 431.56C482.091 431.56 482.797 431.707 483.411 432C484.024 432.293 484.531 432.707 484.931 433.24C485.357 433.747 485.677 434.347 485.891 435.04C486.104 435.707 486.211 436.44 486.211 437.24C486.211 438.44 486.037 439.693 485.691 441C485.371 442.28 484.877 443.547 484.211 444.8C483.571 446.08 482.784 447.32 481.851 448.52C480.917 449.72 479.851 450.827 478.651 451.84L477.451 450.68ZM476.331 406.6C476.331 405.907 476.451 405.253 476.691 404.64C476.957 404.027 477.304 403.493 477.731 403.04C478.184 402.587 478.717 402.227 479.331 401.96C479.944 401.693 480.597 401.56 481.291 401.56C481.984 401.56 482.637 401.693 483.251 401.96C483.864 402.227 484.397 402.587 484.851 403.04C485.304 403.493 485.664 404.027 485.931 404.64C486.197 405.253 486.331 405.907 486.331 406.6C486.331 407.32 486.197 407.987 485.931 408.6C485.664 409.187 485.304 409.707 484.851 410.16C484.397 410.613 483.864 410.973 483.251 411.24C482.637 411.48 481.984 411.6 481.291 411.6C480.597 411.6 479.944 411.48 479.331 411.24C478.717 410.973 478.184 410.613 477.731 410.16C477.304 409.707 476.957 409.187 476.691 408.6C476.451 407.987 476.331 407.32 476.331 406.6ZM503.388 415.84C503.388 410.133 502.655 404.587 501.188 399.2C499.748 393.813 497.628 388.693 494.828 383.84C494.615 383.44 494.481 383.093 494.428 382.8C494.375 382.48 494.388 382.213 494.468 382C494.548 381.76 494.668 381.56 494.828 381.4C495.015 381.213 495.215 381.053 495.428 380.92L498.588 378.96C500.588 382.053 502.281 385.107 503.668 388.12C505.081 391.133 506.215 394.16 507.068 397.2C507.948 400.213 508.588 403.267 508.988 406.36C509.388 409.453 509.588 412.613 509.588 415.84C509.588 419.093 509.388 422.267 508.988 425.36C508.588 428.427 507.948 431.48 507.068 434.52C506.215 437.56 505.081 440.587 503.668 443.6C502.281 446.613 500.588 449.653 498.588 452.72L495.428 450.8C495.215 450.667 495.015 450.507 494.828 450.32C494.668 450.16 494.548 449.96 494.468 449.72C494.388 449.507 494.375 449.24 494.428 448.92C494.481 448.6 494.615 448.24 494.828 447.84C497.628 442.987 499.748 437.867 501.188 432.48C502.655 427.093 503.388 421.547 503.388 415.84Z" fill="#008080"/>
<rect x="2.5" y="2.5" width="590" height="837" stroke="#20B2AA" stroke-width="5"/>
</svg>
