<svg width="530" height="354" viewBox="0 0 530 354" fill="none" xmlns="http://www.w3.org/2000/svg">
<g filter="url(#filter0_d_204_11)">
<rect x="4" width="522" height="346" rx="30" fill="black"/>
<rect x="9" y="5" width="512" height="336" rx="25" stroke="url(#paint0_linear_204_11)" stroke-width="10"/>
</g>
<path d="M109 94C109 91.2386 111.239 89 114 89H190C192.761 89 195 91.2386 195 94V337H109V94Z" fill="#5941A9" fill-opacity="0.48"/>
<path d="M320 208C320 205.239 322.239 203 325 203H401C403.761 203 406 205.239 406 208V337H320V208Z" fill="#F06C9B" fill-opacity="0.79"/>
<path d="M182.487 184.54C183.187 185.3 183.947 185.84 184.767 186.16C185.587 186.48 186.447 186.64 187.347 186.64C188.207 186.64 188.997 186.47 189.717 186.13C190.437 185.79 191.057 185.25 191.577 184.51C192.117 183.75 192.537 182.77 192.837 181.57C193.137 180.37 193.287 178.91 193.287 177.19C193.287 175.55 193.167 174.17 192.927 173.05C192.687 171.93 192.347 171.03 191.907 170.35C191.487 169.65 190.977 169.15 190.377 168.85C189.777 168.55 189.107 168.4 188.367 168.4C187.007 168.4 185.887 168.65 185.007 169.15C184.127 169.65 183.287 170.38 182.487 171.34V184.54ZM181.917 165.73C183.137 164.43 184.517 163.37 186.057 162.55C187.617 161.71 189.467 161.29 191.607 161.29C193.227 161.29 194.727 161.65 196.107 162.37C197.487 163.09 198.677 164.13 199.677 165.49C200.677 166.85 201.457 168.52 202.017 170.5C202.597 172.46 202.887 174.69 202.887 177.19C202.887 179.53 202.557 181.69 201.897 183.67C201.257 185.65 200.347 187.37 199.167 188.83C198.007 190.29 196.607 191.43 194.967 192.25C193.347 193.07 191.547 193.48 189.567 193.48C187.947 193.48 186.587 193.25 185.487 192.79C184.387 192.33 183.387 191.71 182.487 190.93V202.87H173.187V161.89H178.947C180.107 161.89 180.867 162.41 181.227 163.45L181.917 165.73ZM228.039 161.41C230.399 161.41 232.549 161.78 234.489 162.52C236.429 163.26 238.089 164.32 239.469 165.7C240.869 167.08 241.949 168.76 242.709 170.74C243.489 172.7 243.879 174.91 243.879 177.37C243.879 179.85 243.489 182.09 242.709 184.09C241.949 186.07 240.869 187.76 239.469 189.16C238.089 190.54 236.429 191.61 234.489 192.37C232.549 193.11 230.399 193.48 228.039 193.48C225.659 193.48 223.489 193.11 221.529 192.37C219.589 191.61 217.909 190.54 216.489 189.16C215.089 187.76 213.999 186.07 213.219 184.09C212.459 182.09 212.079 179.85 212.079 177.37C212.079 174.91 212.459 172.7 213.219 170.74C213.999 168.76 215.089 167.08 216.489 165.7C217.909 164.32 219.589 163.26 221.529 162.52C223.489 161.78 225.659 161.41 228.039 161.41ZM228.039 186.58C230.179 186.58 231.749 185.83 232.749 184.33C233.769 182.81 234.279 180.51 234.279 177.43C234.279 174.35 233.769 172.06 232.749 170.56C231.749 169.06 230.179 168.31 228.039 168.31C225.839 168.31 224.229 169.06 223.209 170.56C222.189 172.06 221.679 174.35 221.679 177.43C221.679 180.51 222.189 182.81 223.209 184.33C224.229 185.83 225.839 186.58 228.039 186.58ZM263.862 148.09V193H254.562V148.09H263.862ZM285.448 148.09V193H276.148V148.09H285.448ZM307.244 161.89V193H297.944V161.89H307.244ZM308.204 153.37C308.204 154.11 308.054 154.81 307.754 155.47C307.454 156.11 307.044 156.68 306.524 157.18C306.004 157.66 305.394 158.05 304.694 158.35C304.014 158.63 303.284 158.77 302.504 158.77C301.744 158.77 301.034 158.63 300.374 158.35C299.714 158.05 299.124 157.66 298.604 157.18C298.104 156.68 297.704 156.11 297.404 155.47C297.124 154.81 296.984 154.11 296.984 153.37C296.984 152.61 297.124 151.9 297.404 151.24C297.704 150.58 298.104 150 298.604 149.5C299.124 149 299.714 148.61 300.374 148.33C301.034 148.05 301.744 147.91 302.504 147.91C303.284 147.91 304.014 148.05 304.694 148.33C305.394 148.61 306.004 149 306.524 149.5C307.044 150 307.454 150.58 307.754 151.24C308.054 151.9 308.204 152.61 308.204 153.37ZM330.86 193.48C329.38 193.48 328.07 193.27 326.93 192.85C325.81 192.41 324.86 191.8 324.08 191.02C323.32 190.22 322.74 189.26 322.34 188.14C321.94 187.02 321.74 185.77 321.74 184.39V168.31H319.1C318.62 168.31 318.21 168.16 317.87 167.86C317.53 167.54 317.36 167.08 317.36 166.48V162.85L322.31 161.89L324.14 154.3C324.38 153.34 325.06 152.86 326.18 152.86H331.04V161.95H338.75V168.31H331.04V183.76C331.04 184.48 331.21 185.08 331.55 185.56C331.91 186.02 332.42 186.25 333.08 186.25C333.42 186.25 333.7 186.22 333.92 186.16C334.16 186.08 334.36 186 334.52 185.92C334.7 185.82 334.86 185.74 335 185.68C335.16 185.6 335.34 185.56 335.54 185.56C335.82 185.56 336.04 185.63 336.2 185.77C336.38 185.89 336.56 186.09 336.74 186.37L339.56 190.78C338.36 191.68 337.01 192.36 335.51 192.82C334.01 193.26 332.46 193.48 330.86 193.48ZM347.497 188.29C347.497 187.57 347.627 186.9 347.887 186.28C348.167 185.66 348.537 185.12 348.997 184.66C349.477 184.2 350.037 183.84 350.677 183.58C351.317 183.3 352.017 183.16 352.777 183.16C353.517 183.16 354.207 183.3 354.847 183.58C355.487 183.84 356.047 184.2 356.527 184.66C357.007 185.12 357.377 185.66 357.637 186.28C357.917 186.9 358.057 187.57 358.057 188.29C358.057 189.01 357.917 189.69 357.637 190.33C357.377 190.95 357.007 191.49 356.527 191.95C356.047 192.41 355.487 192.77 354.847 193.03C354.207 193.29 353.517 193.42 352.777 193.42C352.017 193.42 351.317 193.29 350.677 193.03C350.037 192.77 349.477 192.41 348.997 191.95C348.537 191.49 348.167 190.95 347.887 190.33C347.627 189.69 347.497 189.01 347.497 188.29Z" fill="url(#paint1_linear_204_11)"/>
<defs>
<filter id="filter0_d_204_11" x="0" y="0" width="530" height="354" filterUnits="userSpaceOnUse" color-interpolation-filters="sRGB">
<feFlood flood-opacity="0" result="BackgroundImageFix"/>
<feColorMatrix in="SourceAlpha" type="matrix" values="0 0 0 0 0 0 0 0 0 0 0 0 0 0 0 0 0 0 127 0" result="hardAlpha"/>
<feOffset dy="4"/>
<feGaussianBlur stdDeviation="2"/>
<feComposite in2="hardAlpha" operator="out"/>
<feColorMatrix type="matrix" values="0 0 0 0 0 0 0 0 0 0 0 0 0 0 0 0 0 0 0.25 0"/>
<feBlend mode="normal" in2="BackgroundImageFix" result="effect1_dropShadow_204_11"/>
<feBlend mode="normal" in="SourceGraphic" in2="effect1_dropShadow_204_11" result="shape"/>
</filter>
<linearGradient id="paint0_linear_204_11" x1="265" y1="0" x2="265" y2="346" gradientUnits="userSpaceOnUse">
<stop stop-color="#5941A9"/>
<stop offset="1" stop-color="#F06C9B"/>
</linearGradient>
<linearGradient id="paint1_linear_204_11" x1="298" y1="238" x2="218.5" y2="218" gradientUnits="userSpaceOnUse">
<stop stop-color="#5941A9"/>
<stop offset="0.916152" stop-color="#F06C9B"/>
</linearGradient>
</defs>
</svg>
