<svg xmlns="http://www.w3.org/2000/svg" viewBox="0 0 522.28 477.76"><defs><style>.cls-1{fill:#221e55;}.cls-2{fill:#f4e66b;}.cls-3{fill:#10e967;}.cls-4{fill:#e973fc;}</style></defs><g id="Layer_2" data-name="Layer 2"><g id="Layer_1-2" data-name="Layer 1"><rect class="cls-1" x="108.86" y="108.05" width="305.13" height="306.75" transform="translate(-108.28 261.42) rotate(-45)"/><ellipse class="cls-1" cx="369.31" cy="153.54" rx="152.57" ry="153.37" transform="translate(-0.4 306.11) rotate(-45)"/><ellipse class="cls-1" cx="152.97" cy="152.97" rx="152.57" ry="153.37" transform="translate(-63.36 152.97) rotate(-45)"/><path class="cls-2" d="M79.43,104.67,82,106.22a5.61,5.61,0,0,1,2.63,2.55,10.29,10.29,0,0,1,.65,4.1,8.49,8.49,0,0,1-1.72,5.24,11.52,11.52,0,0,1-4.43,3.45A19.76,19.76,0,0,1,74.27,123a26.76,26.76,0,0,1-4.43.49,24.07,24.07,0,0,1-4.27-.49,21.12,21.12,0,0,1-3.52-.9,17.7,17.7,0,0,1-4.43-3.61,6.71,6.71,0,0,1-1.8-4.34,3.16,3.16,0,0,1,1.06-2.55,4,4,0,0,1,2.79-1,2.93,2.93,0,0,1,1.72.66,3.27,3.27,0,0,1,1.23,1.23,6.18,6.18,0,0,0,3,3.19A9.62,9.62,0,0,0,70,116.72a15.37,15.37,0,0,0,5.33-.9c1.64-.66,2.46-1.53,2.46-2.63a1.5,1.5,0,0,0-.41-1.14,4.14,4.14,0,0,0-1-1A9.59,9.59,0,0,0,73,109.75L70,109a32.07,32.07,0,0,1-6.56-2.21,16.15,16.15,0,0,1-5.08-3.69,8,8,0,0,1-1.89-5.5A8.17,8.17,0,0,1,58.11,93a9.53,9.53,0,0,1,3.69-3.44,32.21,32.21,0,0,1,4.92-1.23,32.09,32.09,0,0,1,4.76-.66,22.93,22.93,0,0,1,4.1.41,7.75,7.75,0,0,1,3.36,1.15A16.11,16.11,0,0,1,82.55,92a4.39,4.39,0,0,1,1.39,3.2,5.34,5.34,0,0,1-.41,2,2.1,2.1,0,0,1-1,1.23,6.63,6.63,0,0,1-2.87.58,1.88,1.88,0,0,1-1.23-.41c-.27-.28-.66-.71-1.15-1.31a3.59,3.59,0,0,0-1.72-1.64c-.66-.17-1.61-.36-2.87-.58a15.42,15.42,0,0,0-2.54-.41,8.56,8.56,0,0,0-3.94,1.07c-1.31.71-2,1.53-2,2.46a1.33,1.33,0,0,0,.58,1.15,13.1,13.1,0,0,0,1.31.73c.49.22.82.36,1,.41a23.22,23.22,0,0,0,3.77,1.4c1.43.38,2.3.63,2.63.74A20.72,20.72,0,0,1,79.43,104.67Zm17.74-34.2a11.37,11.37,0,0,1,5,1.56,4.07,4.07,0,0,1,2.13,3.77,3.48,3.48,0,0,1-1.8,3,7.8,7.8,0,0,1-4.18,1.06A3.82,3.82,0,0,1,95,78.67a4.26,4.26,0,0,1-.9-2.54,14.42,14.42,0,0,1,.49-4.1A2.3,2.3,0,0,1,97.17,70.47Zm6.56,36.33v2.38c0,2.13.06,4.15.16,6.06s.36,3.75.58,5.66a2.8,2.8,0,0,1-1.23,1.72,3.66,3.66,0,0,1-2,.82,9.7,9.7,0,0,1-3.2-.57,3.15,3.15,0,0,1-1.89-1.56,26.41,26.41,0,0,1-.49-4.67q0-6.72-.41-15.09-.33-7.38-.33-10.33a3.09,3.09,0,0,1,1.48-2.54,5.23,5.23,0,0,1,3.12-1.07,4.15,4.15,0,0,1,3.28,1.07,4.87,4.87,0,0,1,1,3.36Zm10.16-11.89a5.12,5.12,0,0,1-2-4,2.58,2.58,0,0,1,1.14-2,4.13,4.13,0,0,1,2.79-1,7.39,7.39,0,0,1,4.84,1.55,12.91,12.91,0,0,1,3.28,4.51,11.3,11.3,0,0,1,4.35-4.67,13.44,13.44,0,0,1,6.8-1.56,9.82,9.82,0,0,1,3.94.66,6,6,0,0,1,2.54,1.72A26.65,26.65,0,0,1,144,93.35a14.64,14.64,0,0,1,5.33-4.1A16.31,16.31,0,0,1,156,87.77a10,10,0,0,1,7.3,3.37,16.84,16.84,0,0,1,4.51,7.62,57.14,57.14,0,0,1,.58,8.53l.32,4.76c.28,2.89,1.21,4.62,2.79,5.16a6.66,6.66,0,0,1,1.89.82c.55.28.82.58.82.9a3.18,3.18,0,0,1-.9,2.87,13.89,13.89,0,0,1-2.05,1.07,5.66,5.66,0,0,1-2,.57c-3,0-5.06-1.06-6.32-3.19a12.71,12.71,0,0,1-1.56-4.84,70.61,70.61,0,0,1-.32-7.55,27.08,27.08,0,0,0-1.23-8.69q-1.23-3.69-5.58-3.69a5.78,5.78,0,0,0-3.12,1A5.37,5.37,0,0,0,149,98.76a16.07,16.07,0,0,0-1.56,4.84,37.81,37.81,0,0,0-.41,5.9,40.37,40.37,0,0,0,.25,4.35c0,.44,0,1.15.08,2.13a21.91,21.91,0,0,1,.17,2.54,7.22,7.22,0,0,1-.82,3.53,2.72,2.72,0,0,1-2.63,1.39c-3,0-4.59-1.58-4.75-4.75a33.37,33.37,0,0,1,.08-3.61v-3.53c0-2-.08-3.88-.25-5.74a31.49,31.49,0,0,0-.57-4.18,11,11,0,0,0-2-4.18A4.65,4.65,0,0,0,132.83,96a6.54,6.54,0,0,0-3.2.82,7.92,7.92,0,0,0-2.54,2.3,15,15,0,0,0-2,6q-.5,4.5-.74,7.13t-.16,5.9a8,8,0,0,1-.82,3.86,2.91,2.91,0,0,1-2.87,1.47,7.56,7.56,0,0,1-3.28-.82,2.67,2.67,0,0,1-1.64-2.37,15.73,15.73,0,0,1,.32-3.12,115.48,115.48,0,0,0,.74-15.91,8,8,0,0,0-.82-3.52A7.1,7.1,0,0,0,113.89,94.91Zm68-.33a5.64,5.64,0,0,0-1.39.16,9.76,9.76,0,0,1-1.32.09,2.46,2.46,0,0,1-1.72-.82,2.37,2.37,0,0,1-.74-1.48,3.58,3.58,0,0,1,2.14-3.28A8.6,8.6,0,0,1,183.15,88,7,7,0,0,1,187,89.33a7.81,7.81,0,0,1,3,3.2,12.34,12.34,0,0,1,5.25-3.69,18.43,18.43,0,0,1,6.48-1.15,11.43,11.43,0,0,1,7,2.38,17,17,0,0,1,5.16,6.07,15.41,15.41,0,0,1,1.89,7.21,24.86,24.86,0,0,1-.74,6.32,18.77,18.77,0,0,1-2.62,5.49,16.29,16.29,0,0,1-5.74,4.84,17.69,17.69,0,0,1-8.45,1.89,10,10,0,0,1-3.2-.66,16,16,0,0,1-3.11-1.56,94.29,94.29,0,0,0-.58,9.68,40.77,40.77,0,0,0,.25,4.67c.11,1.75.16,3,.16,3.77a2.93,2.93,0,0,1-1.23,2.63,4.47,4.47,0,0,1-2.7.9c-2,0-3.28-.55-3.94-1.64a9.15,9.15,0,0,1-.9-4.51q.33-7,.82-13,.49-7.38.49-22.79a9.48,9.48,0,0,0-.57-3.12C183.34,95.13,182.71,94.58,181.84,94.58Zm10.41,17a4.41,4.41,0,0,0,2.3,2.63,8.12,8.12,0,0,0,3.53,1q4.66,0,7-2.54a8.82,8.82,0,0,0,2.21-3.53,19,19,0,0,0,.57-5.49,9.68,9.68,0,0,0-1.14-4.92,7.33,7.33,0,0,0-2.79-3,6.08,6.08,0,0,0-3.12-1,7.62,7.62,0,0,0-5.49,2.05,9.46,9.46,0,0,0-2.63,5.42A72.51,72.51,0,0,0,192.25,111.55Zm40.29-1.14a10.57,10.57,0,0,0,.9,4.83,2.85,2.85,0,0,0,2.46,1.64,12.91,12.91,0,0,0,1.56-.08,6.71,6.71,0,0,1,1.48-.16,1.66,1.66,0,0,1,1.39.82,2.8,2.8,0,0,1,.66,1.8,3.52,3.52,0,0,1-1.89,3.12,9.66,9.66,0,0,1-4.92,1.06,9,9,0,0,1-4.51-1.31,10.55,10.55,0,0,1-3.69-4.26,16.28,16.28,0,0,1-1.48-7.3q0-9.34.33-15.83.4-7.69.41-19.43a22.33,22.33,0,0,1,.41-5.17,3.45,3.45,0,0,1,1.56-1.72,4.69,4.69,0,0,1,2.38-.65,5,5,0,0,1,2.13.41A2.2,2.2,0,0,1,233,69.49a8,8,0,0,1,.41,2,15.46,15.46,0,0,1,.17,2.62c0,2.24-.09,4.4-.25,6.48-.11,2.51-.16,4.34-.16,5.49Q232.54,100.48,232.54,110.41Zm13.22-6.07A14.5,14.5,0,0,1,248,96.06a25.73,25.73,0,0,1,6.15-6.32A10.94,10.94,0,0,1,258,88.35a20.38,20.38,0,0,1,4.75-.66,14.16,14.16,0,0,1,5.17,1.07,16.47,16.47,0,0,1,4.51,2.29,11.73,11.73,0,0,1,4.18,5.17,18.44,18.44,0,0,1,1.15,6.89,4.52,4.52,0,0,1-2,3.36,6.3,6.3,0,0,1-4.1,1.56l-3.12-.08q-2.37,0-6.8.16l-1.72.08c-1.21.11-2.11.17-2.71.17a27,27,0,0,1-3.61-.33,8.7,8.7,0,0,0,2.87,6.07,8.41,8.41,0,0,0,5.5,2.13c3.44,0,5.85-.69,7.21-2,1.15-.82,1.92-1.34,2.3-1.56a3.74,3.74,0,0,1,1.8-.33,2.89,2.89,0,0,1,2.3,1.23,3.38,3.38,0,0,1-.74,5.33,26.3,26.3,0,0,1-4.51,3,21.08,21.08,0,0,1-4.26,1.15,25.92,25.92,0,0,1-4.51.49,15.26,15.26,0,0,1-6.4-1.64A15.72,15.72,0,0,1,250,118a18.37,18.37,0,0,1-3-5.82A25.21,25.21,0,0,1,245.76,104.34Zm16.32-2.22a61.85,61.85,0,0,0,8.52-.41,6.28,6.28,0,0,0-1.47-3.85,11.2,11.2,0,0,0-4.92-3.12,4.75,4.75,0,0,0-1.31-.16,10.06,10.06,0,0,0-6.4,2,8.11,8.11,0,0,0-3,5.25Q257.57,102.12,262.08,102.12Z"/><path class="cls-2" d="M224.18,214a1,1,0,0,1-.68-.27,1.08,1.08,0,0,1-.27-.72,2.7,2.7,0,0,1,.9-1.93q.27-.14,1.08-.45a4.11,4.11,0,0,1,4.23.63,3.2,3.2,0,0,1,1.08,2.61c0,.33-.06,1-.18,2.11-.12,1.26-.18,2.24-.18,2.93a12.69,12.69,0,0,0,.86,5.08,2.25,2.25,0,0,0,1,1,2.62,2.62,0,0,0,1.21.36,4.36,4.36,0,0,0,2.12-.45,7.72,7.72,0,0,0,1.75-1.44,4.63,4.63,0,0,0,1.22-2.25,20,20,0,0,0,.45-3.46c.06-1,.12-1.67.18-2.12a36.26,36.26,0,0,0,.22-3.69,2.4,2.4,0,0,1,.54-1.62,1.8,1.8,0,0,1,1.49-.67,2.62,2.62,0,0,1,1.21.36,1.81,1.81,0,0,1,.95.76,3.05,3.05,0,0,1,.27,1.49,3.88,3.88,0,0,1-.14,1,10.13,10.13,0,0,0-.31,2.7l0,2.34a18.18,18.18,0,0,0,.45,4.73,8.75,8.75,0,0,0,.63,1.48,12.63,12.63,0,0,0,.77,1.22,14.83,14.83,0,0,1,1.17,1.39,1.2,1.2,0,0,1,.27.72,1.43,1.43,0,0,1-.54,1,1.58,1.58,0,0,1-1.08.45,4.1,4.1,0,0,1-2.88-1.13,6.71,6.71,0,0,1-1.8-2.92,25.05,25.05,0,0,1-2.84,2.83,6.42,6.42,0,0,1-2.2.95,12.85,12.85,0,0,1-2.61.27,5.73,5.73,0,0,1-3.56-1.44,7.16,7.16,0,0,1-2.43-3.33q0-.09-.27-.72a7.38,7.38,0,0,1-.18-1.89c0-1.11.06-2.51.18-4.19.09-1.08.14-2.07.14-3a.85.85,0,0,0-.32-.67.86.86,0,0,0-.63-.27,2.64,2.64,0,0,0-.63.09A4.73,4.73,0,0,1,224.18,214Zm38.33,5,1.39.86a3.09,3.09,0,0,1,1.44,1.39,5.68,5.68,0,0,1,.36,2.25,4.67,4.67,0,0,1-.94,2.88,6.35,6.35,0,0,1-2.43,1.89,10.82,10.82,0,0,1-2.66.77,14.79,14.79,0,0,1-2.43.27,13.28,13.28,0,0,1-2.34-.27,11.14,11.14,0,0,1-1.93-.5,9.76,9.76,0,0,1-2.43-2,3.67,3.67,0,0,1-1-2.38,1.73,1.73,0,0,1,.58-1.4,2.17,2.17,0,0,1,1.53-.54,1.64,1.64,0,0,1,1,.36,1.8,1.8,0,0,1,.67.68A3.39,3.39,0,0,0,255,225a5.27,5.27,0,0,0,2.38.59,8.46,8.46,0,0,0,2.93-.5q1.35-.54,1.35-1.44a.85.85,0,0,0-.23-.63,2.29,2.29,0,0,0-.54-.54,5.17,5.17,0,0,0-1.89-.72l-1.62-.4a17.57,17.57,0,0,1-3.6-1.22,8.81,8.81,0,0,1-2.79-2,4.39,4.39,0,0,1-1-3,4.46,4.46,0,0,1,.9-2.52,5.2,5.2,0,0,1,2-1.89,17.26,17.26,0,0,1,2.7-.67,17.7,17.7,0,0,1,2.61-.36,12.38,12.38,0,0,1,2.25.22,4.3,4.3,0,0,1,1.85.63,9,9,0,0,1,2,1.53,2.42,2.42,0,0,1,.76,1.76,3,3,0,0,1-.22,1.08,1.16,1.16,0,0,1-.54.67,3.71,3.71,0,0,1-1.58.32,1,1,0,0,1-.67-.23q-.23-.22-.63-.72a2,2,0,0,0-.95-.9c-.36-.09-.88-.19-1.57-.31a8.41,8.41,0,0,0-1.4-.23,4.69,4.69,0,0,0-2.16.59q-1.08.58-1.08,1.35a.73.73,0,0,0,.32.63c.24.15.48.28.72.4l.54.23a12.89,12.89,0,0,0,2.07.76c.78.21,1.26.35,1.44.41A11.53,11.53,0,0,1,262.51,219Zm7-.18a7.94,7.94,0,0,1,1.22-4.54,14.08,14.08,0,0,1,3.37-3.47,6,6,0,0,1,2.12-.76,11.26,11.26,0,0,1,2.61-.36,7.7,7.7,0,0,1,2.83.58,9.09,9.09,0,0,1,2.48,1.26,6.4,6.4,0,0,1,2.29,2.84,10.17,10.17,0,0,1,.63,3.78A2.47,2.47,0,0,1,286,220a3.47,3.47,0,0,1-2.25.86l-1.71-.05c-.87,0-2.11,0-3.73.09l-.95.05c-.66.06-1.15.09-1.48.09a14.88,14.88,0,0,1-2-.18,4.75,4.75,0,0,0,1.57,3.33,4.62,4.62,0,0,0,3,1.17c1.89,0,3.21-.38,4-1.13.63-.45,1-.73,1.26-.85a2.07,2.07,0,0,1,1-.18,1.58,1.58,0,0,1,1.26.67,2.16,2.16,0,0,1,.54,1.35,2.22,2.22,0,0,1-.95,1.58A14.67,14.67,0,0,1,283,228.4a11.57,11.57,0,0,1-2.34.63,14.35,14.35,0,0,1-2.48.27,8.44,8.44,0,0,1-3.51-.9,8.7,8.7,0,0,1-2.88-2.07,10.21,10.21,0,0,1-1.66-3.2A13.85,13.85,0,0,1,269.49,218.81Zm9-1.21a34.44,34.44,0,0,0,4.68-.23,3.42,3.42,0,0,0-.81-2.11,6,6,0,0,0-2.7-1.71,2.63,2.63,0,0,0-.72-.09,5.52,5.52,0,0,0-3.51,1.12,4.46,4.46,0,0,0-1.67,2.88C275.22,217.55,276.8,217.6,278.45,217.6Zm22.12-15c-.9,0-1.45.75-1.66,2.25-.21,2-.32,3.59-.32,4.64q.9.09,1.89.09.63,0,1.62-.09l1.17-.05a2.36,2.36,0,0,1,1.35.32,1.16,1.16,0,0,1,.45,1,2.41,2.41,0,0,1-.67,1.71,2,2,0,0,1-1.49.68,19.47,19.47,0,0,0-4.36.31q0,2.75.27,7.79l.09,2.2.18,3.51a3.11,3.11,0,0,1-.27,1.85c-.21.33-.68.49-1.4.49-1.32,0-2.17-.79-2.56-2.38a40,40,0,0,1-.59-4.91c-.15-2.1-.22-4-.22-5.62,0-.87,0-1.86.13-3a1.44,1.44,0,0,0-.49-.05,2.66,2.66,0,0,0-.59.05q-1.35.09-2,.09a1.09,1.09,0,0,1-.81-.54,2.4,2.4,0,0,1-.4-1.4,1.19,1.19,0,0,1,.31-.81,1.81,1.81,0,0,1,.77-.58,4.17,4.17,0,0,1,1.93-.36l1.35,0q0-6.39,1.44-8.86a4.75,4.75,0,0,1,4.46-2.34,6.2,6.2,0,0,1,3.28.9,2.72,2.72,0,0,1,.95,1,2.14,2.14,0,0,1,.36,1.12,2.36,2.36,0,0,1-.54,1.4,1.54,1.54,0,0,1-2.57.09,3.23,3.23,0,0,0-.49-.41A1,1,0,0,0,300.57,202.61Zm7.2,11.34a.86.86,0,0,1-.63-.27,1.08,1.08,0,0,1-.27-.72,2.37,2.37,0,0,1,.86-2,3.16,3.16,0,0,1,2.11-.72,4.9,4.9,0,0,1,3,1,3,3,0,0,1,1.3,2.61q0,.45-.18,3.42c-.12,2.28-.18,3.79-.18,4.54a5,5,0,0,0,.59,2.57,2.15,2.15,0,0,0,1.93.94q2.52,0,3.87-2.79a20.84,20.84,0,0,0,1.85-6.93q.18-1.8.54-3.78a4.39,4.39,0,0,1,.49-1.57,1.34,1.34,0,0,1,1.22-.5,4.13,4.13,0,0,1,1.35.27,1.66,1.66,0,0,1,1,.72,4,4,0,0,1,.27,1.49,17.59,17.59,0,0,1-.31,2.92,29.68,29.68,0,0,0-.5,3.92,11.05,11.05,0,0,0,.59,4,4.3,4.3,0,0,0,1.93,2.7c1,.48,1.44.91,1.44,1.3a1.8,1.8,0,0,1-.67,1.49,2.13,2.13,0,0,1-1.31.54,4.39,4.39,0,0,1-3-1.22,7,7,0,0,1-1.89-3,16.89,16.89,0,0,1-1.85,2.38,7.17,7.17,0,0,1-2.2,1.53,8.37,8.37,0,0,1-3.33.59,6.42,6.42,0,0,1-4.28-1.67q-1.89-1.66-1.89-5.71c0-.75,0-1.55,0-2.39s.09-1.44.09-1.8c.09-1.08.13-2.07.13-3a.84.84,0,0,0-.31-.67.86.86,0,0,0-.63-.27,2.64,2.64,0,0,0-.63.09A4.18,4.18,0,0,1,307.77,214Zm30.54,8.19a5.83,5.83,0,0,0,.5,2.66,1.57,1.57,0,0,0,1.35.9,7.62,7.62,0,0,0,.85,0,3.72,3.72,0,0,1,.81-.09.93.93,0,0,1,.77.45,1.55,1.55,0,0,1,.36,1,1.93,1.93,0,0,1-1,1.71,5.3,5.3,0,0,1-2.7.59,5,5,0,0,1-2.47-.72,5.82,5.82,0,0,1-2-2.34,8.92,8.92,0,0,1-.81-4q0-5.13.18-8.68.23-4.23.23-10.67a12.13,12.13,0,0,1,.22-2.83,1.9,1.9,0,0,1,.86-1,2.58,2.58,0,0,1,1.3-.36,2.81,2.81,0,0,1,1.17.23,1.22,1.22,0,0,1,.72.72,4.63,4.63,0,0,1,.23,1.08,8.64,8.64,0,0,1,.09,1.44c0,1.23,0,2.41-.14,3.55-.06,1.38-.09,2.39-.09,3Q338.31,216.7,338.31,222.14Z"/><path class="cls-3" d="M58.73,212.08a2.13,2.13,0,0,1-2.43,2.38,2.31,2.31,0,0,1-1.35-.38,6.45,6.45,0,0,1-1.19-1.14c-1.08-1.18-2-1.78-2.81-1.78a5.85,5.85,0,0,0-3.07.92,6.86,6.86,0,0,0-2.38,2.59,7.66,7.66,0,0,0-.92,3.73,6.53,6.53,0,0,0,3.67,6.37,6.57,6.57,0,0,0,1.62.59,7.6,7.6,0,0,0,1.68.22,9,9,0,0,0,3.94-1.24,13.2,13.2,0,0,1,1.46-.65,3.68,3.68,0,0,1,1.24-.22,2.4,2.4,0,0,1,1.35.54,1.62,1.62,0,0,1,.76,1.35,3.37,3.37,0,0,1-1.52,2.76,11.29,11.29,0,0,1-3.72,1.67,17.16,17.16,0,0,1-4.16.54A12.44,12.44,0,0,1,45,228.87a11.52,11.52,0,0,1-4.32-4A10.77,10.77,0,0,1,39,219.05a12.88,12.88,0,0,1,1.57-6.32,11.65,11.65,0,0,1,4.21-4.48,10.85,10.85,0,0,1,5.78-1.62,11.35,11.35,0,0,1,3.67.64,8.68,8.68,0,0,1,3.18,1.89A3.9,3.9,0,0,1,58.73,212.08Zm27.53.7A7.54,7.54,0,0,1,87,215a13.48,13.48,0,0,1,.27,2.53,28.34,28.34,0,0,1-.92,6q-3.72,6.79-11,6.8a10.21,10.21,0,0,1-5.5-1.78,10,10,0,0,1-3.89-4.1,28.32,28.32,0,0,1-1.46-5.89,13.06,13.06,0,0,1,.92-4.59,16.08,16.08,0,0,1,2.43-4.21,7,7,0,0,1,3.29-2.11,12.21,12.21,0,0,1,4.32-.92,13.2,13.2,0,0,1,6.43,1.46A11.23,11.23,0,0,1,86.26,212.78Zm-4.7,8.7a13.9,13.9,0,0,0,.27-3.62,8.27,8.27,0,0,0-.6-3.08,6.86,6.86,0,0,0-1.62-2.59,2.69,2.69,0,0,0-.59-.33,5.43,5.43,0,0,0-1.35-.48,6,6,0,0,0-1.89-.27,4.75,4.75,0,0,0-4.43,2.43,10.85,10.85,0,0,0-1.4,5.51,14.35,14.35,0,0,0,.27,2,7.86,7.86,0,0,0,.54,1.89,4.72,4.72,0,0,0,.81,1.08,8.7,8.7,0,0,0,1.67,1.19,5,5,0,0,0,2.11.48,6.22,6.22,0,0,0,3.89-1.13A8.39,8.39,0,0,0,81.56,221.48Zm17,.27a6.89,6.89,0,0,0,.6,3.18,1.88,1.88,0,0,0,1.62,1.08c.36,0,.7,0,1,0a4.65,4.65,0,0,1,1-.11,1.1,1.1,0,0,1,.92.54,1.85,1.85,0,0,1,.43,1.19,2.3,2.3,0,0,1-1.24,2,6.34,6.34,0,0,1-3.24.7,6,6,0,0,1-3-.86,7,7,0,0,1-2.43-2.81,10.68,10.68,0,0,1-1-4.81q0-6.15.22-10.42.27-5.07.27-12.8a14.52,14.52,0,0,1,.27-3.4,2.21,2.21,0,0,1,1-1.13,3.12,3.12,0,0,1,1.57-.43,3.33,3.33,0,0,1,1.4.27,1.48,1.48,0,0,1,.87.86,5.9,5.9,0,0,1,.27,1.3,10.66,10.66,0,0,1,.1,1.72c0,1.48,0,2.9-.16,4.27C99,203.75,99,205,99,205.71Q98.56,215.21,98.55,221.75Zm30.52-9a7.22,7.22,0,0,1,.71,2.22,13.48,13.48,0,0,1,.27,2.53,17.79,17.79,0,0,1-.33,3.24c-.21,1.19-.41,2.11-.59,2.76q-3.73,6.79-11,6.8a10.26,10.26,0,0,1-5.51-1.78,10,10,0,0,1-3.88-4.1,26.69,26.69,0,0,1-1.46-5.89,12.84,12.84,0,0,1,.92-4.59,15.54,15.54,0,0,1,2.43-4.21,7.32,7.32,0,0,1,3.34-2.11,12.21,12.21,0,0,1,4.32-.92,12.89,12.89,0,0,1,6.38,1.46A11.15,11.15,0,0,1,129.07,212.78Zm-4.69,8.7a12.75,12.75,0,0,0,.27-3.62,8.27,8.27,0,0,0-.6-3.08,6.86,6.86,0,0,0-1.62-2.59,2.69,2.69,0,0,0-.59-.33,5.75,5.75,0,0,0-1.35-.48,6,6,0,0,0-1.89-.27,4.75,4.75,0,0,0-4.43,2.43,10.75,10.75,0,0,0-1.4,5.51,11.56,11.56,0,0,0,.32,2,18.17,18.17,0,0,0,.49,2,6.87,6.87,0,0,0,1.72,1.78,4.9,4.9,0,0,0,2.92,1,5.94,5.94,0,0,0,3.83-1.13A8.3,8.3,0,0,0,124.38,221.48ZM142.73,228a2.91,2.91,0,0,1-.76,1.62,2.2,2.2,0,0,1-1.67.7,3.82,3.82,0,0,1-2.38-.6,3,3,0,0,1-.76-2.32c0-1.51.09-3.17.27-5,.15-2.08.22-3.69.22-4.8,0-.58,0-1.3-.11-2.16s-.11-1.39-.11-1.78a2.45,2.45,0,0,0-.75-1.46,4.27,4.27,0,0,0-1.73-.92,1.93,1.93,0,0,1-.81-.7,1.91,1.91,0,0,1-.32-1,2.12,2.12,0,0,1,1-1.89,4.12,4.12,0,0,1,2.37-.65,3.76,3.76,0,0,1,2.7,1.08,6.87,6.87,0,0,1,1.73,2.7,9.94,9.94,0,0,1,3-2.86,7,7,0,0,1,3.56-1.08,8.35,8.35,0,0,1,3.73.75,2.51,2.51,0,0,1,1.56,2.49,3.48,3.48,0,0,1-.92,2.16,2.36,2.36,0,0,1-1.78,1.08,3.2,3.2,0,0,1-1.67-.65,3,3,0,0,0-.87-.43,1.91,1.91,0,0,0-.91-.22,4.75,4.75,0,0,0-1.62.27,2.1,2.1,0,0,0-1,.65,14.76,14.76,0,0,0-1.3,2.43,7,7,0,0,0-.37,2.32,14,14,0,0,1-.06,1.46l-.05,3.08.05,2.05A24.68,24.68,0,0,1,142.73,228Zm29.77-26a2.91,2.91,0,0,1-1.45-.38,2,2,0,0,1-1-1.13,5.28,5.28,0,0,0-1.18-2.05,1.93,1.93,0,0,0-1.46-.65c-.36,0-.7.27-1,.81a7.84,7.84,0,0,0-.65,2.54c-.25,2.37-.37,4.19-.37,5.45a12,12,0,0,0,2.26.16c.51,0,1.16,0,2-.1l1.46-.06a2.63,2.63,0,0,1,1.51.38,1.41,1.41,0,0,1,.54,1.24,2.86,2.86,0,0,1-.76,2.05,2.36,2.36,0,0,1-1.78.81,23.44,23.44,0,0,0-5.24.38q0,3.24.33,9.29c0,.61,0,1.49.1,2.65l.22,4.15a3.81,3.81,0,0,1-.32,2.22c-.26.39-.81.59-1.68.59-1.58,0-2.61-1-3.08-2.86a47.65,47.65,0,0,1-.7-5.83q-.21-3.84-.21-6.75c0-1,.05-2.18.16-3.51a1.68,1.68,0,0,0-.6-.06,2.94,2.94,0,0,0-.7.06c-1.08.07-1.87.11-2.37.11-.33,0-.65-.24-1-.71a2.77,2.77,0,0,1-.48-1.62,1.4,1.4,0,0,1,.38-1,2.13,2.13,0,0,1,.91-.7,5,5,0,0,1,2.33-.43h1.62q0-7.56,1.67-10.53a5.69,5.69,0,0,1,5.35-2.81,7.91,7.91,0,0,1,3.29.7,6.51,6.51,0,0,1,2.59,2,5,5,0,0,1,.6,5.07A1.52,1.52,0,0,1,172.5,202Zm4.05,9.94a1,1,0,0,1-.76-.33,1.31,1.31,0,0,1-.32-.86,2.84,2.84,0,0,1,1-2.38,3.82,3.82,0,0,1,2.53-.86,5.89,5.89,0,0,1,3.62,1.13,3.57,3.57,0,0,1,1.57,3.14c0,.36-.07,1.72-.22,4.1-.14,2.74-.21,4.55-.21,5.45a6,6,0,0,0,.7,3.08,2.59,2.59,0,0,0,2.32,1.14c2,0,3.56-1.12,4.64-3.35a24.92,24.92,0,0,0,2.22-8.32c.14-1.44.36-3,.65-4.53a5.18,5.18,0,0,1,.59-1.89,1.59,1.59,0,0,1,1.46-.6,4.86,4.86,0,0,1,1.62.33,2,2,0,0,1,1.24.86,4.66,4.66,0,0,1,.32,1.78,21.35,21.35,0,0,1-.37,3.51,35.59,35.59,0,0,0-.6,4.7,13.27,13.27,0,0,0,.7,4.75,5.14,5.14,0,0,0,2.33,3.24c1.15.58,1.72,1.1,1.72,1.57a2.16,2.16,0,0,1-.81,1.78A2.55,2.55,0,0,1,201,230a5.3,5.3,0,0,1-3.62-1.46,8.44,8.44,0,0,1-2.27-3.62,19.66,19.66,0,0,1-2.21,2.86,8.66,8.66,0,0,1-2.65,1.84,10,10,0,0,1-4,.7,7.62,7.62,0,0,1-5.13-2c-1.52-1.33-2.27-3.61-2.27-6.85,0-.9,0-1.86.05-2.87s.11-1.72.11-2.16c.11-1.29.16-2.48.16-3.56a1,1,0,0,0-.38-.81,1,1,0,0,0-.75-.32,3.24,3.24,0,0,0-.76.1A4.41,4.41,0,0,1,176.55,211.92Zm36.65,9.83a6.9,6.9,0,0,0,.59,3.18,1.88,1.88,0,0,0,1.62,1.08c.36,0,.7,0,1,0a4.51,4.51,0,0,1,1-.11,1.11,1.11,0,0,1,.92.54,1.91,1.91,0,0,1,.43,1.19,2.32,2.32,0,0,1-1.24,2,6.39,6.39,0,0,1-3.24.7,6,6,0,0,1-3-.86,6.85,6.85,0,0,1-2.43-2.81,10.68,10.68,0,0,1-1-4.81c0-4.1.08-7.57.22-10.42q.27-5.07.27-12.8a14.52,14.52,0,0,1,.27-3.4,2.27,2.27,0,0,1,1-1.13,3.06,3.06,0,0,1,1.56-.43,3.41,3.41,0,0,1,1.41.27,1.43,1.43,0,0,1,.86.86,5.9,5.9,0,0,1,.27,1.3,10.43,10.43,0,0,1,.11,1.72c0,1.48-.06,2.9-.16,4.27-.08,1.66-.11,2.86-.11,3.62Q213.2,215.21,213.2,221.75Z"/><path class="cls-4" d="M221.14,307.4q0,3.25-3.33,3.26a3.18,3.18,0,0,1-1.85-.52,9.19,9.19,0,0,1-1.63-1.56c-1.48-1.62-2.76-2.44-3.85-2.44a8,8,0,0,0-4.22,1.26A9.4,9.4,0,0,0,203,311a10.43,10.43,0,0,0-1.26,5.11,8.9,8.9,0,0,0,5,8.73,8.53,8.53,0,0,0,2.22.81,10.67,10.67,0,0,0,2.29.3,12.45,12.45,0,0,0,5.41-1.7,19.47,19.47,0,0,1,2-.89,4.92,4.92,0,0,1,1.71-.3,3.34,3.34,0,0,1,1.85.74,2.21,2.21,0,0,1,1,1.85,4.61,4.61,0,0,1-2.07,3.78,15.74,15.74,0,0,1-5.11,2.29,23.1,23.1,0,0,1-5.69.74,17,17,0,0,1-8.14-2,15.74,15.74,0,0,1-5.92-5.47,14.77,14.77,0,0,1-2.22-8,17.73,17.73,0,0,1,2.14-8.66,16.11,16.11,0,0,1,5.77-6.14,14.9,14.9,0,0,1,7.92-2.22,15.46,15.46,0,0,1,5,.88,11.81,11.81,0,0,1,4.37,2.59A5.4,5.4,0,0,1,221.14,307.4Zm7-.22a1.65,1.65,0,0,1-1.11-.45,1.74,1.74,0,0,1-.45-1.18,4.47,4.47,0,0,1,1.48-3.18c.3-.15.89-.4,1.78-.74a6.57,6.57,0,0,1,2.37-.52,6.76,6.76,0,0,1,4.59,1.55,5.29,5.29,0,0,1,1.77,4.3c0,.54-.1,1.7-.29,3.47-.2,2.08-.3,3.68-.3,4.81a20.92,20.92,0,0,0,1.41,8.37,3.63,3.63,0,0,0,1.62,1.62,4.3,4.3,0,0,0,2,.6,7.19,7.19,0,0,0,3.48-.74,13.12,13.12,0,0,0,2.89-2.37,7.6,7.6,0,0,0,2-3.7,31.7,31.7,0,0,0,.74-5.7q.15-2.37.3-3.48a59,59,0,0,0,.37-6.07,4,4,0,0,1,.89-2.66,2.94,2.94,0,0,1,2.44-1.11,4.4,4.4,0,0,1,2,.59,3,3,0,0,1,1.55,1.26,4.92,4.92,0,0,1,.45,2.44,6.34,6.34,0,0,1-.23,1.7,16.94,16.94,0,0,0-.51,4.44l.07,3.85a30,30,0,0,0,.74,7.77,14,14,0,0,0,1,2.44,20.48,20.48,0,0,0,1.25,2,24.28,24.28,0,0,1,1.93,2.3,2,2,0,0,1,.44,1.18,2.3,2.3,0,0,1-.89,1.7,2.54,2.54,0,0,1-1.77.74,6.71,6.71,0,0,1-4.74-1.85,11,11,0,0,1-3-4.81,40.75,40.75,0,0,1-4.66,4.66A10.77,10.77,0,0,1,246.2,332a21.54,21.54,0,0,1-4.29.44,9.38,9.38,0,0,1-5.84-2.37,11.69,11.69,0,0,1-4-5.47c0-.1-.2-.5-.44-1.19a11.91,11.91,0,0,1-.3-3.1c0-1.83.1-4.12.3-6.89.14-1.77.22-3.4.22-4.88a1.43,1.43,0,0,0-.52-1.11,1.41,1.41,0,0,0-1-.44,4.74,4.74,0,0,0-1,.14A7.83,7.83,0,0,1,228.15,307.18Zm42.31-.82a2.92,2.92,0,0,1-1.71-.81,2.79,2.79,0,0,1-.59-1.78,2.83,2.83,0,0,1,1-2.22,1.81,1.81,0,0,1,.74-.37c.34-.14.61-.27.81-.37a9.52,9.52,0,0,0,2.07-.81,5.27,5.27,0,0,0,2.3-3.4c.39-1.88.64-3.16.74-3.85a3.61,3.61,0,0,1,1-2.44,3.34,3.34,0,0,1,2.37-.89,3.07,3.07,0,0,1,2.59,1,6.08,6.08,0,0,1,.74,3.55,13.37,13.37,0,0,1-1.63,6.44c.69,0,1.83-.05,3.41-.15,2.37-.1,4-.15,5-.15a3.5,3.5,0,0,1,2.14.67,2,2,0,0,1,1,1.78,3,3,0,0,1-2.59,3.33,40.74,40.74,0,0,1-8.58.81c-.35,4.83-.52,8.66-.52,11.47a22.2,22.2,0,0,0,.22,3.7,6.85,6.85,0,0,0,1.48,3.4,4.62,4.62,0,0,0,3.26,1,13.93,13.93,0,0,0,3.11-.52,7.8,7.8,0,0,1,2-.37,1.76,1.76,0,0,1,1.48.67,2.82,2.82,0,0,1,.51,1.77c0,1.34-.86,2.45-2.59,3.33a13.87,13.87,0,0,1-6.14,1.26,9.92,9.92,0,0,1-4.36-1,13.56,13.56,0,0,1-3.63-2.67c-.2-.1-.49-.64-.89-1.63s-.69-2.07-1-3.25a23.54,23.54,0,0,1-.23-4.29q0-3.26.45-11.25l.07-1.63c-.34,0-1,0-1.92-.07Zm26.93,8.81a13.07,13.07,0,0,1,2-7.47,22.89,22.89,0,0,1,5.55-5.7,9.71,9.71,0,0,1,3.48-1.26,18.78,18.78,0,0,1,4.29-.59,12.7,12.7,0,0,1,4.66,1,14.69,14.69,0,0,1,4.07,2.07,10.52,10.52,0,0,1,3.78,4.66,16.77,16.77,0,0,1,1,6.22,4.06,4.06,0,0,1-1.77,3,5.7,5.7,0,0,1-3.7,1.41l-2.81-.07q-2.14,0-6.15.14l-1.55.08c-1.09.1-1.9.15-2.44.15a24.18,24.18,0,0,1-3.26-.3,7.85,7.85,0,0,0,2.59,5.48,7.58,7.58,0,0,0,5,1.92q4.67,0,6.51-1.85,1.56-1.11,2.07-1.41a3.54,3.54,0,0,1,1.63-.29,2.6,2.6,0,0,1,2.07,1.11,3.51,3.51,0,0,1,.89,2.22,3.63,3.63,0,0,1-1.55,2.59,24.76,24.76,0,0,1-4.07,2.66,19,19,0,0,1-3.85,1,24,24,0,0,1-4.07.44,13.8,13.8,0,0,1-5.77-1.48,14.34,14.34,0,0,1-4.74-3.4,17,17,0,0,1-2.74-5.26A22.73,22.73,0,0,1,297.39,315.17Zm14.73-2a56.52,56.52,0,0,0,7.7-.37,5.67,5.67,0,0,0-1.34-3.48,9.33,9.33,0,0,0-3.25-2.36,9.23,9.23,0,0,0-1.19-.45,4.23,4.23,0,0,0-1.18-.15,9.1,9.1,0,0,0-5.77,1.85,7.37,7.37,0,0,0-2.74,4.74Q308.05,313.18,312.12,313.17Z"/><path class="cls-3" d="M315.8,120.62a2.26,2.26,0,0,1-1.25,1.92,4.12,4.12,0,0,1-2.23.78,9,9,0,0,1-3.18-.46A5.59,5.59,0,0,1,307,121a8.86,8.86,0,0,1-3.69,1.82,17.88,17.88,0,0,1-4.32.58,8.09,8.09,0,0,1-5.3-1.72,6.37,6.37,0,0,1-2.08-5.15,4.75,4.75,0,0,1,.78-2.65,7.47,7.47,0,0,1,2.13-2.18,11.72,11.72,0,0,1,3.43-1.51,14.08,14.08,0,0,1,4-.57,9.87,9.87,0,0,1,2.6.41,10.66,10.66,0,0,1,2.34.89v-.84q0-2.81-1.35-3.84a7,7,0,0,0-4.37-1.1,4.68,4.68,0,0,0-1.77.37,18.84,18.84,0,0,0-1.92,1,5.86,5.86,0,0,1-2.76.78,1.12,1.12,0,0,1-.88-.63,2.35,2.35,0,0,1-.42-1.19,3.21,3.21,0,0,1,1.4-2.6,10,10,0,0,1,3.44-1.62,12.84,12.84,0,0,1,3.53-.57,12.29,12.29,0,0,1,3.59.63,8.16,8.16,0,0,1,5.72,4.78A8.59,8.59,0,0,1,312,110c0,.45,0,1.13-.1,2s-.1,1.8-.1,2.49c0,.32,0,.78-.11,1.41s-.1,1.37-.1,1.82a1.47,1.47,0,0,0,.47,1.09,1.57,1.57,0,0,0,1.09.42l1.45-.06a1,1,0,0,1,.89.42A1.67,1.67,0,0,1,315.8,120.62Zm-16.74-1.35a12.81,12.81,0,0,0,3.74-.47,17.61,17.61,0,0,0,3.64-1.72,12.08,12.08,0,0,0,.26-2.34,11.71,11.71,0,0,0-4.73-1.35,8.87,8.87,0,0,0-3.8.78,2.79,2.79,0,0,0-1.66,2.76,2.07,2.07,0,0,0,.83,1.66A2.73,2.73,0,0,0,299.06,119.27ZM340,90.56c0,.35-.09,1.3-.26,2.86a114,114,0,0,0-.58,11.6c0,3.43.06,6,.16,7.85a12.63,12.63,0,0,0,.78,4.16,2,2,0,0,0,1.92,1.41c1.67,0,2.5.55,2.5,1.66a2.25,2.25,0,0,1-1.09,1.87,4.2,4.2,0,0,1-2.39.73,6.05,6.05,0,0,1-2.92-.73,5.12,5.12,0,0,1-2.13-2.23,7.74,7.74,0,0,1-3.17,2.6,9.44,9.44,0,0,1-3.95.93,10.67,10.67,0,0,1-5.25-1.25,8.88,8.88,0,0,1-3.54-3.38,9.47,9.47,0,0,1-1.25-4.78,19.68,19.68,0,0,1,.57-4.78,12.26,12.26,0,0,1,1.67-3.85,9.64,9.64,0,0,1,3.74-3.12,10.43,10.43,0,0,1,4.68-1.2,6.28,6.28,0,0,1,2.65.57,8.57,8.57,0,0,1,2.19,1.3c0-2.32,0-3.77,0-4.36v-1.1a28.66,28.66,0,0,1,.62-7.07,2.62,2.62,0,0,1,2.76-2.18,2.54,2.54,0,0,1,1.76.52A2.57,2.57,0,0,1,340,90.56Zm-16,23.2a5.42,5.42,0,0,0,1.35,3.84,4.49,4.49,0,0,0,3.33,1.46,4.76,4.76,0,0,0,4.06-1.72,6.91,6.91,0,0,0,1.35-4.42l-.05-5.14a5.79,5.79,0,0,0-4.22-2.24,5.67,5.67,0,0,0-2.86.78,5.27,5.27,0,0,0-2.08,2.24A11.76,11.76,0,0,0,324,113.76Zm44.45-7.34a7.21,7.21,0,0,1,.67,2.14,12.46,12.46,0,0,1,.26,2.44,17.31,17.31,0,0,1-.31,3.12c-.21,1.14-.4,2-.57,2.65q-3.58,6.56-10.61,6.55a9.89,9.89,0,0,1-5.3-1.71,9.66,9.66,0,0,1-3.75-4,26.42,26.42,0,0,1-1.4-5.67,12.49,12.49,0,0,1,.88-4.42,15.82,15.82,0,0,1,2.34-4.06,7.13,7.13,0,0,1,3.23-2,11.6,11.6,0,0,1,4.16-.88,12.4,12.4,0,0,1,6.13,1.4A10.86,10.86,0,0,1,368.44,106.42Zm-4.53,8.38a12,12,0,0,0,.26-3.49,8.07,8.07,0,0,0-.57-3,6.79,6.79,0,0,0-1.56-2.5,2.44,2.44,0,0,0-.57-.31,5.74,5.74,0,0,0-1.3-.47,5.87,5.87,0,0,0-1.82-.26,4.56,4.56,0,0,0-4.26,2.34,10.34,10.34,0,0,0-1.36,5.31,11.93,11.93,0,0,0,.32,1.92,16.94,16.94,0,0,0,.46,1.87,6.82,6.82,0,0,0,1.67,1.72,4.71,4.71,0,0,0,2.81.93,5.69,5.69,0,0,0,3.69-1.09A8,8,0,0,0,363.91,114.8Zm10.65-9.94a2.53,2.53,0,0,1-1.35-2,1.86,1.86,0,0,1,.63-1.35,2.52,2.52,0,0,1,1.87-.63,4.52,4.52,0,0,1,2.6.78,3.87,3.87,0,0,1,1.66,2.13,9.7,9.7,0,0,1,2.71-2.23,6.59,6.59,0,0,1,3.17-.83,6.09,6.09,0,0,1,3.48,1,3.21,3.21,0,0,1,1.56,2.8,3.16,3.16,0,0,1-.88,2,2.28,2.28,0,0,1-1.72,1,1.63,1.63,0,0,1-.83-.21,10.57,10.57,0,0,1-.78-.72,4.69,4.69,0,0,0-.88-.73,1.37,1.37,0,0,0-.84-.26,4.48,4.48,0,0,0-1.56.26,2,2,0,0,0-1,.62,13.66,13.66,0,0,0-1.25,2.34,6.58,6.58,0,0,0-.37,2.24,13.15,13.15,0,0,1-.05,1.4l-.05,3c0,.45,0,1,.05,1.5s.07,1,.11,1.25A25.59,25.59,0,0,1,381,121a2.14,2.14,0,0,1-.67,1.56,2.29,2.29,0,0,1-1.67.67,3.73,3.73,0,0,1-2.29-.57,2.86,2.86,0,0,1-.72-2.24l-.06-3.32c0-.66-.05-1.6-.05-2.81l.05-3.43c.07-1.67.11-3,.11-4.06a2.14,2.14,0,0,0-.26-1A2.56,2.56,0,0,0,374.56,104.86Zm43,15.76a2.26,2.26,0,0,1-1.25,1.92,4.41,4.41,0,0,1-2.29.78,8.78,8.78,0,0,1-3.12-.46,5.93,5.93,0,0,1-2.18-1.88,8.47,8.47,0,0,1-3.64,1.82,17.88,17.88,0,0,1-4.32.58,8.3,8.3,0,0,1-5.36-1.72,6.4,6.4,0,0,1-2.08-5.15,5.57,5.57,0,0,1,.89-2.91,7.21,7.21,0,0,1,2.18-2.39,8.17,8.17,0,0,1,3.17-1.25,20.8,20.8,0,0,1,4.11-.36,9.81,9.81,0,0,1,2.6.41,11.67,11.67,0,0,1,2.39.89v-.84c0-1.87-.46-3.15-1.4-3.84a7,7,0,0,0-4.37-1.1,4.53,4.53,0,0,0-1.71.32,12.6,12.6,0,0,0-1.72.78,3.71,3.71,0,0,1-1.77.52,2.12,2.12,0,0,1-1.4-.58,1.79,1.79,0,0,1-.68-1.3c0-1.45.9-2.51,2.71-3.17a15.79,15.79,0,0,1,5.61-1,10.62,10.62,0,0,1,3.33.63,9.28,9.28,0,0,1,3.17,1.61,8.58,8.58,0,0,1,2.39,3.12,8.9,8.9,0,0,1,.89,3.95c0,.45,0,1.13-.11,2s-.1,1.8-.1,2.49l-.05,1.41c-.07.76-.11,1.37-.11,1.82a1.44,1.44,0,0,0,1.51,1.51l1.46-.06a1,1,0,0,1,.88.47A1.48,1.48,0,0,1,417.57,120.62Zm-16.8-1.35a12.81,12.81,0,0,0,3.74-.47,17.61,17.61,0,0,0,3.64-1.72,12.08,12.08,0,0,0,.26-2.34,11.66,11.66,0,0,0-4.73-1.35,20,20,0,0,0-2.86.16,3.43,3.43,0,0,0-2,.88,3.2,3.2,0,0,0-.88,2.5,2,2,0,0,0,.94,1.66A3.36,3.36,0,0,0,400.77,119.27Zm21.19-14q0-4.68-.15-7.44-.1-1.56-.21-2.34c-.18-2.7-.26-4.38-.26-5A2.11,2.11,0,0,1,423.73,88a2.28,2.28,0,0,1,2,.78,5.55,5.55,0,0,1,.78,2.54,60.66,60.66,0,0,1,.52,8.43c0,1.45-.05,2.91-.16,4.37a6.82,6.82,0,0,1,3-2.4,9.37,9.37,0,0,1,3.79-.93,7.15,7.15,0,0,1,3.9,1,12.48,12.48,0,0,1,3.17,2.75,14.64,14.64,0,0,1,1.56,3.12,8.19,8.19,0,0,1,.73,3.07,16.72,16.72,0,0,1-.73,4.73,9.83,9.83,0,0,1-1.82,3.8,9.67,9.67,0,0,1-3.32,2.65,9.93,9.93,0,0,1-4.37.88,7.23,7.23,0,0,1-6.24-3.22,7.24,7.24,0,0,1-1.15,2.6,2.45,2.45,0,0,1-3.58.78,1.85,1.85,0,0,1-.63-1.51c0-.24.07-.85.21-1.82a35.46,35.46,0,0,0,.52-5.87Zm10,13.26a7,7,0,0,0,2.13-.31,11.13,11.13,0,0,0,2.08-1.15,3.14,3.14,0,0,0,1.3-2,10.59,10.59,0,0,0,.47-3.23,8.19,8.19,0,0,0-1.51-4.83,4.36,4.36,0,0,0-1.51-1,4.53,4.53,0,0,0-1.87-.42,6.34,6.34,0,0,0-3.9,1.25,4.72,4.72,0,0,0-1.82,3.48,10.24,10.24,0,0,1-.05,1.09l-.11,4.11a5.84,5.84,0,0,0,2,2.13A5.16,5.16,0,0,0,432,118.49Zm22-3.43a6.68,6.68,0,0,0,.58,3.06,1.79,1.79,0,0,0,1.56,1,7.74,7.74,0,0,0,1,0,4.36,4.36,0,0,1,.94-.1,1,1,0,0,1,.88.52,1.77,1.77,0,0,1,.42,1.14,2.24,2.24,0,0,1-1.2,2,6.13,6.13,0,0,1-3.12.67,5.73,5.73,0,0,1-2.86-.83,6.82,6.82,0,0,1-2.34-2.7,10.35,10.35,0,0,1-.93-4.63q0-5.93.21-10,.26-4.87.26-12.32a13.7,13.7,0,0,1,.26-3.28,2.13,2.13,0,0,1,1-1.09,3,3,0,0,1,1.51-.41,3.13,3.13,0,0,1,1.35.26,1.41,1.41,0,0,1,.84.83,5.46,5.46,0,0,1,.26,1.25,9.91,9.91,0,0,1,.1,1.66c0,1.42-.05,2.79-.16,4.11-.06,1.59-.1,2.75-.1,3.48Q454,108.76,454,115.06Zm8.49-3a11.25,11.25,0,0,1,.73-4,15,15,0,0,1,1.92-3.69,8.42,8.42,0,0,1,3.8-2.71,12.32,12.32,0,0,1,4.63-1.09,16.27,16.27,0,0,1,4.21.57,5.13,5.13,0,0,1,3,1.77,9.17,9.17,0,0,1,1.92,5.31,4.45,4.45,0,0,1-.62,2.39,11.83,11.83,0,0,1-1.67,2.13,4.85,4.85,0,0,1-2.81,1.25,22.38,22.38,0,0,1-3.74.31,24.46,24.46,0,0,1-2.91-.21c-1.15-.17-2.26-.38-3.33-.62a7,7,0,0,0,.52,2,4.25,4.25,0,0,0,1,1.5,4.66,4.66,0,0,0,2.13,1.25,13,13,0,0,0,2.91.26,9.74,9.74,0,0,0,3.49-.62,6.61,6.61,0,0,1,2.13-.47,1.87,1.87,0,0,1,1.51.62,2.21,2.21,0,0,1,.52,1.51,2.44,2.44,0,0,1-1.51,2.13A12.49,12.49,0,0,1,476.8,123a17.87,17.87,0,0,1-3.12.37,13,13,0,0,1-4.73-.89,10.1,10.1,0,0,1-3.79-2.49,10.81,10.81,0,0,1-2-3.49A13.14,13.14,0,0,1,462.45,112.09Zm11.34-7a6,6,0,0,0-2.29.47,4.72,4.72,0,0,0-1.87,1.2,8.8,8.8,0,0,0-1.3,1.61,4.3,4.3,0,0,0-.42,1.61,21.74,21.74,0,0,0,5.41.42,7.08,7.08,0,0,0,3.43-.68,2,2,0,0,0,1.25-1.77,2.44,2.44,0,0,0-1.35-2A5.15,5.15,0,0,0,473.79,105.07Z"/><path class="cls-3" d="M99.07,261.9a1.36,1.36,0,0,1-.9-.36,1.43,1.43,0,0,1-.36-1A3.61,3.61,0,0,1,99,258q.36-.18,1.44-.6a5.39,5.39,0,0,1,1.92-.42,5.44,5.44,0,0,1,3.72,1.26,4.27,4.27,0,0,1,1.44,3.48q0,.66-.24,2.82-.24,2.52-.24,3.9a17,17,0,0,0,1.14,6.78,3,3,0,0,0,1.32,1.32,3.51,3.51,0,0,0,1.62.48,5.78,5.78,0,0,0,2.82-.6,10.31,10.31,0,0,0,2.34-1.92,6.15,6.15,0,0,0,1.62-3,26.7,26.7,0,0,0,.6-4.62q.12-1.92.24-2.82a48.58,48.58,0,0,0,.3-4.92,3.2,3.2,0,0,1,.72-2.16,2.4,2.4,0,0,1,2-.9,3.51,3.51,0,0,1,1.62.48,2.4,2.4,0,0,1,1.26,1,4,4,0,0,1,.36,2,5.22,5.22,0,0,1-.18,1.38,13.48,13.48,0,0,0-.42,3.6l.06,3.12a24.18,24.18,0,0,0,.6,6.3,11.72,11.72,0,0,0,.84,2,16.72,16.72,0,0,0,1,1.62,19.58,19.58,0,0,1,1.56,1.86,1.6,1.6,0,0,1,.36,1,1.89,1.89,0,0,1-.72,1.38,2.1,2.1,0,0,1-1.44.6,5.46,5.46,0,0,1-3.84-1.5,9,9,0,0,1-2.4-3.9,33.52,33.52,0,0,1-3.78,3.78,8.6,8.6,0,0,1-2.94,1.26,17.14,17.14,0,0,1-3.48.36,7.62,7.62,0,0,1-4.74-1.92,9.55,9.55,0,0,1-3.24-4.44q-.06-.12-.36-1a9.84,9.84,0,0,1-.24-2.52q0-2.22.24-5.58.18-2.16.18-4a1.14,1.14,0,0,0-.42-.9,1.15,1.15,0,0,0-.84-.36,3.53,3.53,0,0,0-.84.12A6.37,6.37,0,0,1,99.07,261.9Zm51.11,6.72,1.86,1.14a4.12,4.12,0,0,1,1.92,1.86,7.57,7.57,0,0,1,.48,3,6.23,6.23,0,0,1-1.26,3.84,8.46,8.46,0,0,1-3.24,2.52,14.39,14.39,0,0,1-3.54,1,19.72,19.72,0,0,1-3.24.36A17.7,17.7,0,0,1,140,282a15.13,15.13,0,0,1-2.58-.66,13,13,0,0,1-3.24-2.64,4.91,4.91,0,0,1-1.32-3.18,2.3,2.3,0,0,1,.78-1.86,2.89,2.89,0,0,1,2-.72,2.17,2.17,0,0,1,1.26.48,2.41,2.41,0,0,1,.9.9,4.52,4.52,0,0,0,2.22,2.34,7,7,0,0,0,3.18.78,11.24,11.24,0,0,0,3.9-.66q1.8-.72,1.8-1.92a1.14,1.14,0,0,0-.3-.84,3.05,3.05,0,0,0-.72-.72,6.9,6.9,0,0,0-2.52-1l-2.16-.54a23.4,23.4,0,0,1-4.8-1.62,11.76,11.76,0,0,1-3.72-2.7,5.84,5.84,0,0,1-1.38-4,6,6,0,0,1,1.2-3.36,7,7,0,0,1,2.7-2.52,22.84,22.84,0,0,1,3.6-.9,23.6,23.6,0,0,1,3.48-.48,16.55,16.55,0,0,1,3,.3,5.69,5.69,0,0,1,2.46.84,12.07,12.07,0,0,1,2.64,2,3.22,3.22,0,0,1,1,2.34,4,4,0,0,1-.3,1.44,1.56,1.56,0,0,1-.72.9,4.92,4.92,0,0,1-2.1.42,1.36,1.36,0,0,1-.9-.3q-.3-.3-.84-1a2.66,2.66,0,0,0-1.26-1.2q-.72-.18-2.1-.42a10.92,10.92,0,0,0-1.86-.3,6.24,6.24,0,0,0-2.88.78q-1.44.78-1.44,1.8a1,1,0,0,0,.42.84q.48.3,1,.54t.72.3a17.19,17.19,0,0,0,2.76,1q1.56.42,1.92.54A15.32,15.32,0,0,1,150.18,268.62Zm9.31-.24a10.6,10.6,0,0,1,1.62-6.06,18.79,18.79,0,0,1,4.5-4.62,7.92,7.92,0,0,1,2.82-1,15,15,0,0,1,3.48-.48,10.31,10.31,0,0,1,3.78.78,12.07,12.07,0,0,1,3.3,1.68,8.53,8.53,0,0,1,3.06,3.78,13.56,13.56,0,0,1,.84,5,3.31,3.31,0,0,1-1.44,2.46,4.62,4.62,0,0,1-3,1.14l-2.28-.06q-1.74,0-5,.12l-1.26.06q-1.32.12-2,.12a19.84,19.84,0,0,1-2.64-.24,6.34,6.34,0,0,0,2.1,4.44,6.14,6.14,0,0,0,4,1.56q3.78,0,5.28-1.5,1.26-.9,1.68-1.14a2.77,2.77,0,0,1,1.32-.24,2.11,2.11,0,0,1,1.68.9,2.88,2.88,0,0,1,.72,1.8,2.94,2.94,0,0,1-1.26,2.1,19.65,19.65,0,0,1-3.3,2.16,15.43,15.43,0,0,1-3.12.84,19.07,19.07,0,0,1-3.3.36,11.25,11.25,0,0,1-4.68-1.2,11.59,11.59,0,0,1-3.84-2.76,13.57,13.57,0,0,1-2.22-4.26A18.46,18.46,0,0,1,159.49,268.38Zm11.94-1.62a46.18,46.18,0,0,0,6.24-.3,4.58,4.58,0,0,0-1.08-2.82,8,8,0,0,0-3.6-2.28,3.5,3.5,0,0,0-1-.12,7.37,7.37,0,0,0-4.68,1.5,5.94,5.94,0,0,0-2.22,3.84Q168.13,266.76,171.43,266.76Zm17.38-5.7a2.94,2.94,0,0,1-1.56-2.28,2.18,2.18,0,0,1,.72-1.56,2.93,2.93,0,0,1,2.16-.72,5.2,5.2,0,0,1,3,.9,4.4,4.4,0,0,1,1.92,2.46,11.19,11.19,0,0,1,3.12-2.58,7.7,7.7,0,0,1,3.66-1,7.09,7.09,0,0,1,4,1.2,3.71,3.71,0,0,1,1.8,3.24,3.66,3.66,0,0,1-1,2.34,2.63,2.63,0,0,1-2,1.2,1.9,1.9,0,0,1-1-.24q-.36-.3-.9-.84a5.26,5.26,0,0,0-1-.84,1.61,1.61,0,0,0-1-.3,5.31,5.31,0,0,0-1.8.3,2.33,2.33,0,0,0-1.14.72,16.51,16.51,0,0,0-1.44,2.7,7.76,7.76,0,0,0-.42,2.58q0,1-.06,1.62l-.06,3.42q0,.78.06,1.74t.12,1.44a28.27,28.27,0,0,1,.18,3.12,2.47,2.47,0,0,1-.78,1.8,2.61,2.61,0,0,1-1.92.78,4.27,4.27,0,0,1-2.64-.66,3.27,3.27,0,0,1-.84-2.58l-.06-3.84Q190,274.08,190,272l.06-4q.12-2.88.12-4.68a2.43,2.43,0,0,0-.3-1.2A2.82,2.82,0,0,0,188.81,261.06Zm38.34,5.16q2.76,0,2.76,3.12a2.56,2.56,0,0,1-1.14,2.34,4.76,4.76,0,0,1-2.7.72,9.26,9.26,0,0,1-1-.06l-1.14-.12a19.9,19.9,0,0,0-3.24-.3,28.71,28.71,0,0,0-3.06.24,32.31,32.31,0,0,1-3.3.24,6.62,6.62,0,0,1-2.88-.6,2.26,2.26,0,0,1-1.26-2.16,2.56,2.56,0,0,1,1.56-2.7,11.59,11.59,0,0,1,4.38-.66l2,.06q1.44.12,2.22.12l4.38-.12Zm24.62-17.4a2,2,0,0,1-1-.24,9.39,9.39,0,0,1-.9-.9,4.3,4.3,0,0,0-1.08-.9,2,2,0,0,0-1.26-.36q-.6,0-1.26.9a5.59,5.59,0,0,0-.9,2.7,61.56,61.56,0,0,0-.42,6.3,35.56,35.56,0,0,0,4.2.18h2.1a2.9,2.9,0,0,1,1.68.42,1.57,1.57,0,0,1,.6,1.38,3.21,3.21,0,0,1-.84,2.28,2.62,2.62,0,0,1-2,.9q-3.78,0-5.82-.18-.18,3.3-.18,7.14,0,5.4.36,10.8a3.26,3.26,0,0,1-.66,2.4,3.21,3.21,0,0,1-2.34.72,2.13,2.13,0,0,1-1.44-.42,3,3,0,0,1-.72-.9q-.18-.54-.48-1.86a57.68,57.68,0,0,1-.48-9.24v-5q0-1.68.18-3.9h-1.8a12.6,12.6,0,0,1-2.28-.3,2.4,2.4,0,0,1-1.08-.9,2.82,2.82,0,0,1-.54-1.74,1.83,1.83,0,0,1,.42-1.14,2.41,2.41,0,0,1,1-.78,1.86,1.86,0,0,1,.84-.18,3,3,0,0,1,.84.12,7.28,7.28,0,0,0,.9.06l1.8.06q0-8.16,1.86-11.46a6.32,6.32,0,0,1,5.94-3.12,11.1,11.1,0,0,1,3.12.54,8.68,8.68,0,0,1,3.18,1.5,2.8,2.8,0,0,1,1.38,2.34,2.69,2.69,0,0,1-.9,1.92A2.78,2.78,0,0,1,251.77,248.82Zm15.11,30.9a2.47,2.47,0,0,1-.78,1.8,2.61,2.61,0,0,1-1.92.78,4.27,4.27,0,0,1-2.64-.66,3.27,3.27,0,0,1-.84-2.58q0-2.22-.12-5.82-.12-3-.12-5,0-1,.12-2.52t.12-2.16a3.27,3.27,0,0,0-.9-1.86,2.42,2.42,0,0,0-1.86-.78,1.09,1.09,0,0,1-.9-.48,1.94,1.94,0,0,1-.36-1.08,2.37,2.37,0,0,1,1.08-2.1,5,5,0,0,1,2.7-.72q3.24,0,4.5,3.84a12.74,12.74,0,0,1,3.54-2.88,8,8,0,0,1,3.9-1.14,7.09,7.09,0,0,1,4,1.2,3.51,3.51,0,0,1,.84,5.58,2.63,2.63,0,0,1-2,1.2,1.9,1.9,0,0,1-1-.24q-.36-.3-.9-.84a5.26,5.26,0,0,0-1-.84,1.61,1.61,0,0,0-1-.3,5.31,5.31,0,0,0-1.8.3,2.33,2.33,0,0,0-1.14.72,16.51,16.51,0,0,0-1.44,2.7,7.76,7.76,0,0,0-.42,2.58q0,1-.06,1.62l-.06,3.42q0,.78.06,1.74t.12,1.44A28.27,28.27,0,0,1,266.88,279.72Zm17.91-36.12a7.81,7.81,0,0,1,3.6,1.14A3,3,0,0,1,290,247.5a2.56,2.56,0,0,1-1.26,2.22,5.82,5.82,0,0,1-3.12.78,2.8,2.8,0,0,1-2.4-.9,3.11,3.11,0,0,1-.66-1.86,9,9,0,0,1,.42-2.94A1.68,1.68,0,0,1,284.79,243.6Zm-1.2,24.78v-1.74a45.36,45.36,0,0,0-.3-5.46q-.24-2.52-.3-3.12a1.85,1.85,0,0,1,.9-1.26,2.69,2.69,0,0,1,1.5-.6,5.84,5.84,0,0,1,2.28.48,2.4,2.4,0,0,1,1.5,1.08,27.48,27.48,0,0,1,.3,3.42q0,2.64.24,8.64l.06,2.34.12,2.28q.06,1,.12,2.28t.06,3a2.28,2.28,0,0,1-1.14,1.92,3.83,3.83,0,0,1-2.28.78,3.24,3.24,0,0,1-2.46-.78,3.77,3.77,0,0,1-.66-2.46Zm13,1a13.11,13.11,0,0,1,.84-4.56,17.23,17.23,0,0,1,2.22-4.26,9.6,9.6,0,0,1,4.38-3.12,14,14,0,0,1,5.34-1.26,18.7,18.7,0,0,1,4.86.66,5.87,5.87,0,0,1,3.48,2A10.57,10.57,0,0,1,320,265a5.06,5.06,0,0,1-.72,2.76,13.4,13.4,0,0,1-1.92,2.46,5.56,5.56,0,0,1-3.24,1.44,26.24,26.24,0,0,1-4.32.36,28.64,28.64,0,0,1-3.36-.24q-2-.3-3.84-.72a8.07,8.07,0,0,0,.6,2.34,4.87,4.87,0,0,0,1.14,1.74,5.45,5.45,0,0,0,2.46,1.44,15.56,15.56,0,0,0,3.36.3,11,11,0,0,0,4-.72,7.63,7.63,0,0,1,2.46-.54,2.14,2.14,0,0,1,1.74.72,2.49,2.49,0,0,1,.6,1.74,2.82,2.82,0,0,1-1.74,2.46,14.44,14.44,0,0,1-4,1.44,20.27,20.27,0,0,1-3.6.42,15,15,0,0,1-5.46-1,11.63,11.63,0,0,1-4.38-2.88,12.7,12.7,0,0,1-2.28-4A15.33,15.33,0,0,1,296.61,269.4Zm13.08-8.1a6.93,6.93,0,0,0-2.64.54,5.43,5.43,0,0,0-2.16,1.38,11.17,11.17,0,0,0-1.5,1.86,5,5,0,0,0-.48,1.86,25.29,25.29,0,0,0,6.24.48,8.16,8.16,0,0,0,4-.78,2.31,2.31,0,0,0,1.44-2,2.82,2.82,0,0,0-1.56-2.28A5.93,5.93,0,0,0,309.69,261.3Zm15.51-.3a4.61,4.61,0,0,1-.78-.72,2.57,2.57,0,0,1-.3-1.44,2.06,2.06,0,0,1,.78-1.74,3,3,0,0,1,1.92-.66,6,6,0,0,1,3.6,1.08,6.18,6.18,0,0,1,2.28,3,7.18,7.18,0,0,1,3.36-3.36,13.51,13.51,0,0,1,5.64-1,5.7,5.7,0,0,1,2.94.9,12,12,0,0,1,2.82,2.1,12.17,12.17,0,0,1,1.74,3.3,10,10,0,0,1,.72,3.48q0,.9-.12,2.94t-.12,3.42q0,4.2,1.62,5.16a5.65,5.65,0,0,0,.9.3,4.06,4.06,0,0,1,1,.36.58.58,0,0,1,.36.54,2.84,2.84,0,0,1-1.08,2.4,4,4,0,0,1-2.64.9,5.08,5.08,0,0,1-3.66-1.26,7.22,7.22,0,0,1-1.86-3.84,10,10,0,0,1-.3-2.82q0-1,.12-3.3.18-1.8.18-3.84a5.83,5.83,0,0,0-1.2-3.66,3.88,3.88,0,0,0-3.3-1.62,5.38,5.38,0,0,0-2.64.78,4.22,4.22,0,0,0-1.92,1.8A13.4,13.4,0,0,0,334,268a37.58,37.58,0,0,0-.72,7.14q0,.84.12,3.24v.9a4.36,4.36,0,0,1-.18,1.26,2.64,2.64,0,0,1-.48,1.08,2.57,2.57,0,0,1-.9.48,3.42,3.42,0,0,1-1.14.24,4.5,4.5,0,0,1-2.1-.72,2.87,2.87,0,0,1-1.5-1.62l-.06-.84a12.73,12.73,0,0,1,.12-1.44,44.09,44.09,0,0,0,.72-7.32q0-1.38-.06-2.1l-.06-2.76a4.42,4.42,0,0,0-.72-2.4A8.61,8.61,0,0,0,325.2,261Zm56.41-16.44a7.91,7.91,0,0,1-.18,1.5q-.06.36-.12.78t-.12,1q-.54,5.4-.54,13.38a69.16,69.16,0,0,0,.66,11.22q.66,3.66,2,4.38l1.14.48a4,4,0,0,1,1.32.66,1.4,1.4,0,0,1,.48,1.2,2.57,2.57,0,0,1-1.26,2.1,4.87,4.87,0,0,1-2.76.84,4.74,4.74,0,0,1-3.06-1.26,10.33,10.33,0,0,1-2.46-3.3,7.62,7.62,0,0,1-3.6,3.48,11.13,11.13,0,0,1-8.58.72,14.75,14.75,0,0,1-3.24-1.8,9.51,9.51,0,0,1-3.12-3.66,11.5,11.5,0,0,1-1-4.86,17,17,0,0,1,1-5.58,20.17,20.17,0,0,1,2.34-4.92,9.37,9.37,0,0,1,4.14-3.3A13.08,13.08,0,0,1,370,256.5a5.72,5.72,0,0,1,2.7.6,10.81,10.81,0,0,1,2.34,1.56q0-3-.12-5a11.57,11.57,0,0,1-.06-1.26,31.47,31.47,0,0,1,.84-8.16,3,3,0,0,1,3.18-2.52,3,3,0,0,1,2,.6A3,3,0,0,1,381.61,244.56ZM363,271.32a5.7,5.7,0,0,0,2,4.68,7,7,0,0,0,1.5,1.14,3.34,3.34,0,0,0,1.5.3,6.2,6.2,0,0,0,3.3-1,7.24,7.24,0,0,0,2.52-2.64,6.71,6.71,0,0,0,1-3.48l-.06-5.94a8.19,8.19,0,0,0-2.34-2,4.19,4.19,0,0,0-2.16-.6q-3.84,0-5.28,2.94a18.77,18.77,0,0,0-1.38,3.12A11.5,11.5,0,0,0,363,271.32Zm34,1.5a7.75,7.75,0,0,0,.66,3.54,2.09,2.09,0,0,0,1.8,1.2,10.33,10.33,0,0,0,1.14-.06,5,5,0,0,1,1.08-.12,1.22,1.22,0,0,1,1,.6,2.07,2.07,0,0,1,.48,1.32,2.56,2.56,0,0,1-1.38,2.28,7.07,7.07,0,0,1-3.6.78,6.62,6.62,0,0,1-3.3-1,7.75,7.75,0,0,1-2.7-3.12,11.87,11.87,0,0,1-1.08-5.34q0-6.84.24-11.58.3-5.64.3-14.22a16.15,16.15,0,0,1,.3-3.78,2.51,2.51,0,0,1,1.14-1.26,3.46,3.46,0,0,1,1.74-.48,3.74,3.74,0,0,1,1.56.3,1.62,1.62,0,0,1,1,1,6.16,6.16,0,0,1,.3,1.44,11.51,11.51,0,0,1,.12,1.92q0,2.46-.18,4.74-.12,2.76-.12,4Q397,265.56,397,272.82Zm16.81,21.54a7.69,7.69,0,0,1-4.8-1.2,3.23,3.23,0,0,1-1.44-2.52q0-2.1,2-2.1a4.7,4.7,0,0,1,1.56.36,4.51,4.51,0,0,0,1.8.42q1.32,0,2.16-1.74a27.29,27.29,0,0,0,1.68-5.64,47.26,47.26,0,0,1-4.56-6.84,93,93,0,0,1-4.56-9.18q-1.92-4.56-1.92-6.48a2.53,2.53,0,0,1,1-2.22,4.33,4.33,0,0,1,2.46-.72,2.9,2.9,0,0,1,1.68.42,2.06,2.06,0,0,1,.84,1.38,77,77,0,0,0,3.06,8.94,87.3,87.3,0,0,0,4.26,8.34,78.89,78.89,0,0,0,2.7-8,67.58,67.58,0,0,1,3.12-8.94,5.4,5.4,0,0,1,1.32-1.74,2.94,2.94,0,0,1,1.86-.66,3.87,3.87,0,0,1,2.16.78,2.06,2.06,0,0,1,1.2,1.74,3.35,3.35,0,0,1-.42,1.44q-2.34,5.4-4.14,10.2t-3.36,10.44q-1,3.18-2,6.06a23.74,23.74,0,0,1-1.44,3.54,11.83,11.83,0,0,1-2.7,2.76A5.59,5.59,0,0,1,413.84,294.36Z"/><path class="cls-4" d="M37.8,173.72a2.17,2.17,0,0,1-1.2,1.85,4,4,0,0,1-2.15.75,8.57,8.57,0,0,1-3.05-.45,5.57,5.57,0,0,1-2-1.8,8.68,8.68,0,0,1-3.55,1.75,17.9,17.9,0,0,1-4.15.55,7.77,7.77,0,0,1-5.1-1.65,6.16,6.16,0,0,1-2-4.95,4.54,4.54,0,0,1,.75-2.55,7.29,7.29,0,0,1,2.05-2.1,11.22,11.22,0,0,1,3.3-1.45,13.37,13.37,0,0,1,3.85-.55,9.44,9.44,0,0,1,2.5.4,9.88,9.88,0,0,1,2.25.85v-.8c0-1.8-.43-3-1.3-3.7a6.67,6.67,0,0,0-4.2-1.05,4.35,4.35,0,0,0-1.7.35,19.48,19.48,0,0,0-1.85,1,5.6,5.6,0,0,1-2.65.75c-.3,0-.58-.2-.85-.6a2.37,2.37,0,0,1-.4-1.15,3.09,3.09,0,0,1,1.35-2.5,9.49,9.49,0,0,1,3.3-1.55,12.27,12.27,0,0,1,3.4-.55,11.92,11.92,0,0,1,3.45.6,8.77,8.77,0,0,1,3.2,1.55,8.76,8.76,0,0,1,2.3,3.05,8.2,8.2,0,0,1,.85,3.75c0,.43,0,1.08-.1,1.95s-.1,1.73-.1,2.4a12.46,12.46,0,0,1-.1,1.35c-.06.73-.1,1.31-.1,1.75A1.44,1.44,0,0,0,34.2,172a1.56,1.56,0,0,0,1,.4l1.4-.05a1,1,0,0,1,.85.4A1.61,1.61,0,0,1,37.8,173.72Zm-16.1-1.3a12.25,12.25,0,0,0,3.6-.45,17.3,17.3,0,0,0,3.5-1.65,11.34,11.34,0,0,0,.25-2.25,11.18,11.18,0,0,0-4.55-1.3,8.54,8.54,0,0,0-3.65.75,2.69,2.69,0,0,0-1.6,2.65,2,2,0,0,0,.8,1.6A2.64,2.64,0,0,0,21.7,172.42Zm20.58-13.7a3.3,3.3,0,0,0-.85.1,7.31,7.31,0,0,1-.8.05,1.48,1.48,0,0,1-1.05-.5,1.46,1.46,0,0,1-.45-.9,2.17,2.17,0,0,1,1.3-2,5.23,5.23,0,0,1,2.65-.75,4.2,4.2,0,0,1,2.35.8,4.74,4.74,0,0,1,1.85,1.95,7.31,7.31,0,0,1,3.2-2.25,11.22,11.22,0,0,1,4-.7A7,7,0,0,1,58.68,156a10.28,10.28,0,0,1,3.15,3.7,9.47,9.47,0,0,1,1.15,4.4,15.13,15.13,0,0,1-.45,3.85,11.6,11.6,0,0,1-1.6,3.35,10,10,0,0,1-3.5,2.95,10.88,10.88,0,0,1-5.15,1.15,6.25,6.25,0,0,1-2-.4,10.15,10.15,0,0,1-1.9-.95,56.61,56.61,0,0,0-.35,5.9,25.83,25.83,0,0,0,.15,2.85c.06,1.06.1,1.83.1,2.3a1.79,1.79,0,0,1-.75,1.6,2.77,2.77,0,0,1-1.65.55,2.59,2.59,0,0,1-2.4-1,5.55,5.55,0,0,1-.55-2.75q.2-4.31.5-7.95.3-4.5.3-13.9a5.81,5.81,0,0,0-.35-1.9C43.19,159.05,42.81,158.72,42.28,158.72Zm6.35,10.35a2.67,2.67,0,0,0,1.4,1.6,4.88,4.88,0,0,0,2.15.6,5.46,5.46,0,0,0,4.25-1.55,5.38,5.38,0,0,0,1.35-2.15,11.69,11.69,0,0,0,.35-3.35,5.94,5.94,0,0,0-.7-3,4.44,4.44,0,0,0-1.7-1.8,3.72,3.72,0,0,0-1.9-.6,4.59,4.59,0,0,0-3.35,1.25,5.67,5.67,0,0,0-1.6,3.3A43.29,43.29,0,0,0,48.63,169.07Zm18.41-10a6.8,6.8,0,0,1-.7-1.2,3.48,3.48,0,0,1-.2-1.25,1.69,1.69,0,0,1,.65-1.35,2.73,2.73,0,0,1,1.75-.55,3.42,3.42,0,0,1,2.1.8,5.64,5.64,0,0,1,1.7,1.95,5.76,5.76,0,0,1,2.85-2.15,11.24,11.24,0,0,1,3.9-.65,7.08,7.08,0,0,1,4.25,1.4,9.78,9.78,0,0,1,3.15,3.6,9.35,9.35,0,0,1,1.15,4.4,15.13,15.13,0,0,1-.45,3.85,11.34,11.34,0,0,1-1.6,3.35,9.8,9.8,0,0,1-3.5,2.95,10.85,10.85,0,0,1-5.15,1.15,6.36,6.36,0,0,1-2-.4,10.47,10.47,0,0,1-1.9-.95q-.34,3.39-.35,5.9a25.83,25.83,0,0,0,.15,2.85c.07,1.06.1,1.83.1,2.3a1.79,1.79,0,0,1-.75,1.6,2.77,2.77,0,0,1-1.65.55,2.59,2.59,0,0,1-2.4-1,5.66,5.66,0,0,1-.55-2.75c.14-2.87.3-5.52.5-7.95q.36-5.25.35-12.9a4.73,4.73,0,0,0-.5-1.75A7.08,7.08,0,0,0,67,159.07Zm6.25,10a2.74,2.74,0,0,0,1.4,1.6,4.91,4.91,0,0,0,2.15.6,5.45,5.45,0,0,0,4.25-1.55,5.38,5.38,0,0,0,1.35-2.15,11.33,11.33,0,0,0,.35-3.35,5.84,5.84,0,0,0-.7-3,4.31,4.31,0,0,0-1.7-1.8,3.69,3.69,0,0,0-1.9-.6,4.62,4.62,0,0,0-3.35,1.25,5.79,5.79,0,0,0-1.6,3.3A45.17,45.17,0,0,0,73.29,169.07Zm18.46-4.4a8.81,8.81,0,0,1,1.35-5,15.6,15.6,0,0,1,3.75-3.85,6.43,6.43,0,0,1,2.35-.85,12.36,12.36,0,0,1,2.9-.4,8.46,8.46,0,0,1,3.15.65,9.92,9.92,0,0,1,2.75,1.4,7.16,7.16,0,0,1,2.55,3.15,11.19,11.19,0,0,1,.7,4.2,2.76,2.76,0,0,1-1.2,2.05,3.87,3.87,0,0,1-2.5.95l-1.9,0c-1,0-2.35,0-4.15.1l-1,.05c-.73.06-1.28.1-1.65.1a17.12,17.12,0,0,1-2.2-.2,5.29,5.29,0,0,0,1.75,3.7,5.14,5.14,0,0,0,3.35,1.3c2.1,0,3.57-.42,4.4-1.25.7-.5,1.17-.82,1.4-.95a2.22,2.22,0,0,1,1.1-.2,1.76,1.76,0,0,1,1.4.75,2.4,2.4,0,0,1,.6,1.5,2.46,2.46,0,0,1-1,1.75,17.25,17.25,0,0,1-2.75,1.8,13.25,13.25,0,0,1-2.6.7,15.92,15.92,0,0,1-2.75.3,9.45,9.45,0,0,1-3.9-1,9.74,9.74,0,0,1-3.2-2.3,11.35,11.35,0,0,1-1.85-3.55A15.45,15.45,0,0,1,91.75,164.67Zm10-1.35a39.61,39.61,0,0,0,5.2-.25,3.85,3.85,0,0,0-.9-2.35,6.15,6.15,0,0,0-2.2-1.6,4.81,4.81,0,0,0-.8-.3,2.78,2.78,0,0,0-.8-.1A6.12,6.12,0,0,0,98.3,160a5,5,0,0,0-1.85,3.2Q99,163.32,101.7,163.32Zm37,10.4a2.17,2.17,0,0,1-1.2,1.85,4.22,4.22,0,0,1-2.2.75,8.39,8.39,0,0,1-3-.45,5.92,5.92,0,0,1-2.1-1.8,8.27,8.27,0,0,1-3.5,1.75,17.9,17.9,0,0,1-4.15.55,8,8,0,0,1-5.15-1.65,6.16,6.16,0,0,1-2-4.95,5.3,5.3,0,0,1,.85-2.8,7,7,0,0,1,2.1-2.3,7.93,7.93,0,0,1,3-1.2,19.26,19.26,0,0,1,4-.35,9.5,9.5,0,0,1,2.5.4,11.27,11.27,0,0,1,2.3.85v-.8c0-1.8-.45-3-1.35-3.7a6.71,6.71,0,0,0-4.2-1.05,4.4,4.4,0,0,0-1.65.3,11.14,11.14,0,0,0-1.65.75,3.57,3.57,0,0,1-1.7.5,2.09,2.09,0,0,1-1.35-.55,1.73,1.73,0,0,1-.65-1.25c0-1.4.87-2.42,2.6-3a15.14,15.14,0,0,1,5.4-1,10.29,10.29,0,0,1,3.2.6,8.86,8.86,0,0,1,3.05,1.55,8.32,8.32,0,0,1,2.3,3,8.51,8.51,0,0,1,.85,3.8c0,.43,0,1.08-.1,1.95s-.1,1.73-.1,2.4l-.05,1.35c-.07.73-.1,1.31-.1,1.75A1.52,1.52,0,0,0,135,172a1.56,1.56,0,0,0,1.05.4l1.4-.05a1,1,0,0,1,.85.45A1.39,1.39,0,0,1,138.68,173.72Zm-16.15-1.3a12.34,12.34,0,0,0,3.6-.45,17.55,17.55,0,0,0,3.5-1.65,12.14,12.14,0,0,0,.25-2.25,11.18,11.18,0,0,0-4.55-1.3,20.26,20.26,0,0,0-2.75.15,3.26,3.26,0,0,0-1.9.85,3,3,0,0,0-.85,2.4,1.93,1.93,0,0,0,.9,1.6A3.23,3.23,0,0,0,122.53,172.42Zm25-4a6.43,6.43,0,0,0,.55,2.95,1.76,1.76,0,0,0,1.5,1c.33,0,.65,0,.95,0a3.94,3.94,0,0,1,.9-.1,1,1,0,0,1,.85.5,1.7,1.7,0,0,1,.4,1.1,2.13,2.13,0,0,1-1.15,1.9,5.91,5.91,0,0,1-3,.65,5.55,5.55,0,0,1-2.75-.8,6.53,6.53,0,0,1-2.25-2.6,9.91,9.91,0,0,1-.9-4.45q0-5.7.2-9.65.25-4.71.25-11.85a13.27,13.27,0,0,1,.25-3.15,2.08,2.08,0,0,1,.95-1,2.86,2.86,0,0,1,1.45-.4,3.08,3.08,0,0,1,1.3.25,1.32,1.32,0,0,1,.8.8,5.13,5.13,0,0,1,.25,1.2,9.19,9.19,0,0,1,.1,1.6c0,1.36,0,2.68-.15,3.95-.07,1.53-.1,2.65-.1,3.35Q147.51,162.31,147.51,168.37ZM158.62,144a6.77,6.77,0,0,1,3,.95,2.47,2.47,0,0,1,1.3,2.3,2.13,2.13,0,0,1-1.1,1.85,4.78,4.78,0,0,1-2.55.65,2.33,2.33,0,0,1-2-.75,2.58,2.58,0,0,1-.55-1.55,8.81,8.81,0,0,1,.3-2.5A1.39,1.39,0,0,1,158.62,144Zm4,22.15v1.45c0,1.3,0,2.53.1,3.7s.22,2.28.35,3.45a1.68,1.68,0,0,1-.75,1,2.26,2.26,0,0,1-1.25.5,6,6,0,0,1-1.95-.35A1.94,1.94,0,0,1,158,175a15.71,15.71,0,0,1-.3-2.85c0-2.74-.08-5.8-.25-9.2q-.19-4.5-.2-6.3a1.88,1.88,0,0,1,.9-1.55,3.14,3.14,0,0,1,1.9-.65,2.5,2.5,0,0,1,2,.65,2.94,2.94,0,0,1,.6,2Zm29,6.1c.17.06.44.15.8.25a3.22,3.22,0,0,1,.8.3.48.48,0,0,1,.25.45,2.34,2.34,0,0,1-.9,2,3.24,3.24,0,0,1-2.15.75,4.25,4.25,0,0,1-3.05-1.05,6.38,6.38,0,0,1-1.6-3.2,11,11,0,0,1-.2-2.35c0-.57,0-1.49.1-2.75s.1-2.4.1-3.2a4.82,4.82,0,0,0-1-3.05,3.1,3.1,0,0,0-2.7-1.35,4.42,4.42,0,0,0-2.2.65,3.55,3.55,0,0,0-1.6,1.5,10.82,10.82,0,0,0-1.05,3.15,35.19,35.19,0,0,0-.55,6.25c0,1,0,1.83,0,2.4v.8a2.65,2.65,0,0,1-.1,1.05,2.13,2.13,0,0,1-.4.85,1.8,1.8,0,0,1-.8.4,2.61,2.61,0,0,1-1,.2,3.78,3.78,0,0,1-1.75-.6,2.17,2.17,0,0,1-1.2-1.35l-.05-.85a7.35,7.35,0,0,1,.1-1.05,36.84,36.84,0,0,0,.6-6.1c0-.77,0-1.37-.05-1.8l0-2.35a4.73,4.73,0,0,0-.6-2.3c-.4-.77-.86-1.15-1.4-1.15a1.8,1.8,0,0,0-.7.2,2.47,2.47,0,0,1-.75.15,1.82,1.82,0,0,1-1.1-.5,1.48,1.48,0,0,1-.55-1.05,2.23,2.23,0,0,1,.7-1.7,8.33,8.33,0,0,1,1.45-1,3.89,3.89,0,0,1,1.7-.35,4.59,4.59,0,0,1,1.3.15,6.08,6.08,0,0,1,1.35.65,3.58,3.58,0,0,1,1.05,1.1,7.15,7.15,0,0,1,1,2.4,7.66,7.66,0,0,1,3.2-3.35,10.77,10.77,0,0,1,5-1,4.91,4.91,0,0,1,2.45.75,7.21,7.21,0,0,1,3.8,4.5,8.31,8.31,0,0,1,.6,2.9c0,.5,0,1.31-.1,2.45a25.83,25.83,0,0,0-.15,2.85C190.31,170.3,190.76,171.73,191.66,172.27Zm24.67-8.7a6.5,6.5,0,0,1-1.15,3.9,11.05,11.05,0,0,1-3.05,2.75,13.09,13.09,0,0,1-6,1.45,4,4,0,0,0-.2,1.25,1,1,0,0,0,.65.9,11.59,11.59,0,0,0,2.45.4,14.13,14.13,0,0,1,3.25.65,10.69,10.69,0,0,1,2.9,1.15,5.25,5.25,0,0,1,1.8,2,6.07,6.07,0,0,1,.55,2.75,4.31,4.31,0,0,1-2,3.6,12.85,12.85,0,0,1-4.6,2.2,18.75,18.75,0,0,1-4.65.7,12.4,12.4,0,0,1-4.1-.6,13.55,13.55,0,0,1-3.15-1.55,5.39,5.39,0,0,1-1.65-1.9,5.14,5.14,0,0,1-.6-2.4,4.14,4.14,0,0,1,.8-2.4,8.85,8.85,0,0,1,2.05-2,8,8,0,0,1,2.25-1.1,10.3,10.3,0,0,1-.6-.85,2.57,2.57,0,0,1-.15-.9,4.68,4.68,0,0,1,.85-2.85,7.35,7.35,0,0,1-3.8-2.85,8.54,8.54,0,0,1-1.35-4.8,6.35,6.35,0,0,1,.85-3.25A11.56,11.56,0,0,1,200,157a10.11,10.11,0,0,1,7.05-2.3,8.79,8.79,0,0,1,1.65.2,12.9,12.9,0,0,1,2,.55c1.07-.47,2.32-.95,3.75-1.45a11.27,11.27,0,0,1,2.9-.75,2.86,2.86,0,0,1,1.7.4c.4.23.6.76.6,1.6a1.75,1.75,0,0,1-1.35,1.65,22.19,22.19,0,0,1-4,1A8.61,8.61,0,0,1,216.33,163.57Zm-10.4,4a6.06,6.06,0,0,0,4.2-1.2,4.57,4.57,0,0,0,1.35-3.6c0-2.64-1.55-4-4.65-4a8.14,8.14,0,0,0-2.85.4,3.57,3.57,0,0,0-1.65,1.35,5.29,5.29,0,0,0-.9,3.25,3.45,3.45,0,0,0,1.3,2.7A5.06,5.06,0,0,0,205.93,167.57Zm-4.5,13.65c0,.56.52,1.05,1.55,1.45a9,9,0,0,0,3.4.65,12.12,12.12,0,0,0,4.1-.75c1.44-.47,2.15-1.1,2.15-1.9,0-1.17-1-1.92-3.1-2.25-.73-.14-1.8-.39-3.2-.75l-.6-.15c-.2-.07-.41-.14-.65-.2a7.08,7.08,0,0,0-2.4,1.65A3.58,3.58,0,0,0,201.43,181.22Z"/><path class="cls-2" d="M234.13,164.24a12.3,12.3,0,0,1,.78-4.25,16,16,0,0,1,2.07-4,9,9,0,0,1,4.09-2.91,13.22,13.22,0,0,1,5-1.18,17.46,17.46,0,0,1,4.53.62,5.52,5.52,0,0,1,3.25,1.9,9.91,9.91,0,0,1,2.07,5.72,4.71,4.71,0,0,1-.67,2.57,12.58,12.58,0,0,1-1.79,2.3,5.22,5.22,0,0,1-3,1.34,23.75,23.75,0,0,1-4,.34,26.61,26.61,0,0,1-3.13-.23c-1.24-.18-2.43-.41-3.59-.67a7.68,7.68,0,0,0,.56,2.19,4.39,4.39,0,0,0,1.07,1.62,5,5,0,0,0,2.29,1.34,14.34,14.34,0,0,0,3.14.28,10.28,10.28,0,0,0,3.75-.67,7.25,7.25,0,0,1,2.3-.5,2,2,0,0,1,1.62.67,2.33,2.33,0,0,1,.56,1.62,2.63,2.63,0,0,1-1.62,2.3,13.24,13.24,0,0,1-3.76,1.34,18.24,18.24,0,0,1-3.36.4,13.9,13.9,0,0,1-5.09-1,10.8,10.8,0,0,1-4.09-2.68,11.77,11.77,0,0,1-2.13-3.76A14.36,14.36,0,0,1,234.13,164.24Zm12.21-7.56a6.39,6.39,0,0,0-2.47.51,5.06,5.06,0,0,0-2,1.29,9.91,9.91,0,0,0-1.4,1.73A4.47,4.47,0,0,0,240,162a23.44,23.44,0,0,0,5.82.45,7.69,7.69,0,0,0,3.7-.73,2.17,2.17,0,0,0,1.34-1.91,2.62,2.62,0,0,0-1.45-2.12A5.53,5.53,0,0,0,246.34,156.68Zm37.27-15.62c0,.37-.1,1.4-.28,3.08q-.61,6.17-.62,12.49,0,5.53.17,8.45a13.64,13.64,0,0,0,.84,4.48,2.2,2.2,0,0,0,2.07,1.52c1.79,0,2.69.59,2.69,1.79a2.42,2.42,0,0,1-1.18,2,4.48,4.48,0,0,1-2.57.79,6.45,6.45,0,0,1-3.14-.79,5.51,5.51,0,0,1-2.3-2.4,8.34,8.34,0,0,1-3.41,2.8,10.17,10.17,0,0,1-4.26,1,11.54,11.54,0,0,1-5.65-1.34,9.62,9.62,0,0,1-3.81-3.64,10.18,10.18,0,0,1-1.35-5.15,21.18,21.18,0,0,1,.62-5.15,13.54,13.54,0,0,1,1.79-4.15,10.48,10.48,0,0,1,4-3.36,11.23,11.23,0,0,1,5-1.29,6.81,6.81,0,0,1,2.86.62,8.92,8.92,0,0,1,2.35,1.4c0-2.5,0-4.07-.05-4.7v-1.18a31,31,0,0,1,.67-7.62,2.82,2.82,0,0,1,3-2.35,2.76,2.76,0,0,1,1.9.56A2.85,2.85,0,0,1,283.61,141.06Zm-17.25,25a5.86,5.86,0,0,0,1.45,4.14,4.82,4.82,0,0,0,3.59,1.57,5.14,5.14,0,0,0,4.37-1.85,7.46,7.46,0,0,0,1.45-4.76l-.05-5.54a6.2,6.2,0,0,0-4.54-2.41,6.07,6.07,0,0,0-3.08.84,5.59,5.59,0,0,0-2.24,2.41A12.74,12.74,0,0,0,266.36,166Zm28.21-14.23c2.46,0,3.7,1.63,3.7,4.87,0,.41,0,1.33-.12,2.75-.07,1.64-.11,2.93-.11,3.86a15.82,15.82,0,0,0,1.07,6.33,2.69,2.69,0,0,0,1.4,1.23,4.72,4.72,0,0,0,1.79.45,5.18,5.18,0,0,0,1.85-.28,4.43,4.43,0,0,0,1.34-.84,12.4,12.4,0,0,0,1.29-1.23,5.45,5.45,0,0,0,1.34-2.69,21.84,21.84,0,0,0,.39-4.14,28.88,28.88,0,0,1,.17-3.14,33.12,33.12,0,0,0,.34-4.59,3.06,3.06,0,0,1,.61-2,2.31,2.31,0,0,1,1.91-.84A3.18,3.18,0,0,1,313,152a2.41,2.41,0,0,1,1.18.89,3.71,3.71,0,0,1,.39,1.85,4.73,4.73,0,0,1-.17,1.34,7,7,0,0,0-.28,2.13c0,.45,0,1.2.12,2.24a17.42,17.42,0,0,1,.16,2.41,20.17,20.17,0,0,0,.56,5.54,11.75,11.75,0,0,0,1.68,3.36,20,20,0,0,1,1.52,1.74,1.54,1.54,0,0,1,.39.9,1.79,1.79,0,0,1-.67,1.28,2.08,2.08,0,0,1-1.4.62,5.29,5.29,0,0,1-3.64-1.4,8.7,8.7,0,0,1-2.24-3.7c-.42.49-1,1.09-1.63,1.8a15.86,15.86,0,0,1-1.9,1.73,9.36,9.36,0,0,1-5.6,1.57,7,7,0,0,1-3.08-.84,12,12,0,0,1-3-2.18,7.81,7.81,0,0,1-1.85-3q-.06-.12-.33-.9a9,9,0,0,1-.23-2.35l-.05-9a12.48,12.48,0,0,0-.4-2.46,6.65,6.65,0,0,1-.33-1.68,2.12,2.12,0,0,1,.61-1.57A2.49,2.49,0,0,1,294.57,151.81Zm45.58,7.34a2.68,2.68,0,0,1-1.46-.39,8.71,8.71,0,0,1-1.17-1.18,2.9,2.9,0,0,0-1.35-1,5,5,0,0,0-1.57-.23,5.87,5.87,0,0,0-3.19,1,7.61,7.61,0,0,0-2.52,2.69,8,8,0,0,0-.95,3.86,7.76,7.76,0,0,0,.9,3.92,8.17,8.17,0,0,0,3,2.75,7.06,7.06,0,0,0,1.68.61,8.25,8.25,0,0,0,1.74.23A10.07,10.07,0,0,0,339.7,170l.84-.4a2.6,2.6,0,0,1,1-.33,2.39,2.39,0,0,1,1.4.61,1.68,1.68,0,0,1,.78,1.4,3.55,3.55,0,0,1-1.45,2.86,9.13,9.13,0,0,1-3.53,1.74,16.62,16.62,0,0,1-4.2.56,12.92,12.92,0,0,1-6.16-1.52,11.56,11.56,0,0,1-4.54-4.2,11.14,11.14,0,0,1-1.68-6,13.19,13.19,0,0,1,1.63-6.56,12.18,12.18,0,0,1,4.36-4.64,11.28,11.28,0,0,1,6-1.74,13.48,13.48,0,0,1,5.77,1.23,4,4,0,0,1,2.69,3.75A2.2,2.2,0,0,1,340.15,159.15Zm33.49,14.28a2.44,2.44,0,0,1-1.34,2.07,4.76,4.76,0,0,1-2.47.84,9.52,9.52,0,0,1-3.36-.5,6.54,6.54,0,0,1-2.35-2,9.19,9.19,0,0,1-3.92,2,19.74,19.74,0,0,1-4.65.62,8.93,8.93,0,0,1-5.77-1.85,6.89,6.89,0,0,1-2.24-5.55,5.94,5.94,0,0,1,1-3.13,7.82,7.82,0,0,1,2.35-2.58,8.8,8.8,0,0,1,3.41-1.34,22.31,22.31,0,0,1,4.43-.39,11.12,11.12,0,0,1,2.8.44,12.75,12.75,0,0,1,2.57,1v-.9c0-2-.5-3.4-1.51-4.14s-2.54-1.18-4.7-1.18a4.84,4.84,0,0,0-1.85.34,13.19,13.19,0,0,0-1.85.84,4,4,0,0,1-1.9.56,2.32,2.32,0,0,1-1.51-.62,1.91,1.91,0,0,1-.73-1.4q0-2.36,2.91-3.42a17.14,17.14,0,0,1,6.05-1.12,11.47,11.47,0,0,1,3.58.68,10.28,10.28,0,0,1,3.42,1.73,9.44,9.44,0,0,1,2.57,3.36,9.57,9.57,0,0,1,1,4.26c0,.48,0,1.21-.12,2.18s-.11,1.94-.11,2.69l0,1.51c-.08.82-.12,1.48-.12,2a1.54,1.54,0,0,0,1.63,1.63l1.57-.06a1.09,1.09,0,0,1,.95.5A1.59,1.59,0,0,1,373.64,173.43ZM355.55,172a14,14,0,0,0,4-.5,19.48,19.48,0,0,0,3.92-1.85,12.78,12.78,0,0,0,.28-2.52,12.6,12.6,0,0,0-5.09-1.46,22.89,22.89,0,0,0-3.08.17,3.69,3.69,0,0,0-2.13.95,3.44,3.44,0,0,0-1,2.69,2.12,2.12,0,0,0,1,1.79A3.58,3.58,0,0,0,355.55,172Zm21.82-15.23a2,2,0,0,1-1.29-.67,2.09,2.09,0,0,1-.45-1.35,2.46,2.46,0,0,1,.17-.84,2.54,2.54,0,0,1,.61-.78,8.87,8.87,0,0,1,2-1.18,4.1,4.1,0,0,0,1.85-1.23,4.7,4.7,0,0,0,.56-2.74,7.82,7.82,0,0,0-.11-1.46c0-.41-.06-.73-.06-1a2.09,2.09,0,0,1,.9-1.85,3.58,3.58,0,0,1,2.07-.61,2.24,2.24,0,0,1,2,.72,4.62,4.62,0,0,1,.56,2.69,26.66,26.66,0,0,1-.17,3.31,7,7,0,0,1-.72,2.4c.52,0,1.38,0,2.57-.11,1.65-.07,2.78-.11,3.42-.11a2.94,2.94,0,0,1,1.68.5,1.44,1.44,0,0,1,.73,1.29,2.16,2.16,0,0,1-2,2.47,29.34,29.34,0,0,1-6.5.72c-.07,1.46-.11,3-.11,4.76a33.32,33.32,0,0,0,.5,6.61,5.28,5.28,0,0,0,1.12,2.63,3.46,3.46,0,0,0,2.47.79,3.33,3.33,0,0,0,1.34-.23,3.71,3.71,0,0,0,.62-.28,2.47,2.47,0,0,1,1.23-.39,1.25,1.25,0,0,1,1.12.51,2.11,2.11,0,0,1,.39,1.34,3.08,3.08,0,0,1-1.68,2.63,8.31,8.31,0,0,1-4.31,1,7.57,7.57,0,0,1-5-1.74,7.33,7.33,0,0,1-2.41-4.7,37.78,37.78,0,0,1-.56-7.39c0-1.38.08-3.23.22-5.55Zm23.8-16.58a7.74,7.74,0,0,1,3.41,1.07A2.78,2.78,0,0,1,406,143.8a2.39,2.39,0,0,1-1.23,2.08,5.4,5.4,0,0,1-2.86.72,2.61,2.61,0,0,1-2.24-.84,2.89,2.89,0,0,1-.62-1.73,10,10,0,0,1,.34-2.8A1.58,1.58,0,0,1,401.17,140.16ZM405.65,165v1.63c0,1.45,0,2.83.11,4.14s.24,2.56.39,3.86a1.9,1.9,0,0,1-.84,1.18,2.53,2.53,0,0,1-1.4.56,6.57,6.57,0,0,1-2.18-.39,2.15,2.15,0,0,1-1.29-1.07,16.93,16.93,0,0,1-.34-3.19q0-4.59-.28-10.3-.22-5-.22-7.06a2.08,2.08,0,0,1,1-1.73,3.54,3.54,0,0,1,2.12-.73,2.8,2.8,0,0,1,2.24.73,3.28,3.28,0,0,1,.68,2.29Zm29.05-6.83a7.58,7.58,0,0,1,.73,2.3,13.71,13.71,0,0,1,.28,2.63,18.38,18.38,0,0,1-.34,3.36c-.22,1.23-.43,2.18-.61,2.85q-3.87,7.07-11.43,7.06a10.67,10.67,0,0,1-5.71-1.85,10.39,10.39,0,0,1-4-4.25,28,28,0,0,1-1.51-6.11,13.6,13.6,0,0,1,.95-4.76,16.57,16.57,0,0,1,2.52-4.37,7.71,7.71,0,0,1,3.47-2.18,12.66,12.66,0,0,1,4.48-.95,13.27,13.27,0,0,1,6.61,1.51A11.55,11.55,0,0,1,434.7,158.14Zm-4.87,9a13.15,13.15,0,0,0,.28-3.76,8.7,8.7,0,0,0-.62-3.19,7.13,7.13,0,0,0-1.68-2.69,2.77,2.77,0,0,0-.61-.33,5.79,5.79,0,0,0-1.4-.51,6.43,6.43,0,0,0-2-.28,4.92,4.92,0,0,0-4.59,2.52,11.24,11.24,0,0,0-1.46,5.72,12.38,12.38,0,0,0,.34,2.07,17.83,17.83,0,0,0,.5,2,7.27,7.27,0,0,0,1.79,1.85,5.1,5.1,0,0,0,3,1,6.1,6.1,0,0,0,4-1.18A8.61,8.61,0,0,0,429.83,167.16Zm36.78,4.64a7.83,7.83,0,0,0,.9.28,4.05,4.05,0,0,1,.89.34.54.54,0,0,1,.28.5,2.65,2.65,0,0,1-1,2.24,3.67,3.67,0,0,1-2.41.84,4.76,4.76,0,0,1-3.42-1.17,7.06,7.06,0,0,1-1.79-3.59,12,12,0,0,1-.22-2.63c0-.63,0-1.66.11-3.08s.11-2.69.11-3.58a5.43,5.43,0,0,0-1.12-3.42,3.47,3.47,0,0,0-3-1.51,5,5,0,0,0-2.47.73,4,4,0,0,0-1.79,1.68,12.44,12.44,0,0,0-1.18,3.53,38.8,38.8,0,0,0-.61,7c0,1.15,0,2,.05,2.68v.9a3.11,3.11,0,0,1-.11,1.18,2.37,2.37,0,0,1-.45.95,2.1,2.1,0,0,1-.89.45,2.88,2.88,0,0,1-1.07.22,4.2,4.2,0,0,1-2-.67,2.43,2.43,0,0,1-1.34-1.51l-.06-1a6.81,6.81,0,0,1,.12-1.17,42.07,42.07,0,0,0,.67-6.83c0-.86,0-1.53-.06-2l0-2.63A5.29,5.29,0,0,0,444,158c-.44-.86-1-1.29-1.56-1.29a2.17,2.17,0,0,0-.79.23,2.77,2.77,0,0,1-.84.17,2,2,0,0,1-1.23-.56,1.63,1.63,0,0,1-.62-1.18,2.45,2.45,0,0,1,.79-1.9,9.2,9.2,0,0,1,1.62-1.07,4.5,4.5,0,0,1,1.91-.39,5.23,5.23,0,0,1,1.45.17,7.06,7.06,0,0,1,1.51.73,4,4,0,0,1,1.18,1.23,8.23,8.23,0,0,1,1.12,2.69,8.5,8.5,0,0,1,3.58-3.76,12.23,12.23,0,0,1,5.55-1.12,5.51,5.51,0,0,1,2.74.84,10.82,10.82,0,0,1,2.58,2,10.71,10.71,0,0,1,1.68,3.08,9.34,9.34,0,0,1,.67,3.25c0,.56,0,1.48-.11,2.75a29.27,29.27,0,0,0-.17,3.19C465.1,169.6,465.6,171.21,466.61,171.8Zm31.55,1.63a2.42,2.42,0,0,1-1.34,2.07,4.76,4.76,0,0,1-2.46.84,9.45,9.45,0,0,1-3.36-.5,6.49,6.49,0,0,1-2.36-2,9.19,9.19,0,0,1-3.92,2,19.73,19.73,0,0,1-4.64.62,8.91,8.91,0,0,1-5.77-1.85,6.86,6.86,0,0,1-2.24-5.55,5.93,5.93,0,0,1,.95-3.13,7.93,7.93,0,0,1,2.35-2.58,8.85,8.85,0,0,1,3.42-1.34,22.21,22.21,0,0,1,4.42-.39,11.05,11.05,0,0,1,2.8.44,13.11,13.11,0,0,1,2.58,1v-.9c0-2-.51-3.4-1.51-4.14a7.49,7.49,0,0,0-4.71-1.18,4.84,4.84,0,0,0-1.85.34,12.64,12.64,0,0,0-1.84.84,4,4,0,0,1-1.91.56,2.32,2.32,0,0,1-1.51-.62,1.91,1.91,0,0,1-.73-1.4q0-2.36,2.91-3.42a17.18,17.18,0,0,1,6.05-1.12,11.52,11.52,0,0,1,3.59.68,10.23,10.23,0,0,1,3.41,1.73,9.59,9.59,0,0,1,2.58,3.36A9.7,9.7,0,0,1,494,162c0,.48,0,1.21-.11,2.18s-.11,1.94-.11,2.69l-.06,1.51c-.08.82-.11,1.48-.11,2a1.72,1.72,0,0,0,.45,1.18,1.68,1.68,0,0,0,1.17.45l1.57-.06a1.08,1.08,0,0,1,.95.5A1.59,1.59,0,0,1,498.16,173.43ZM480.08,172a14.05,14.05,0,0,0,4-.5,19.73,19.73,0,0,0,3.92-1.85,13.59,13.59,0,0,0,.28-2.52,12.64,12.64,0,0,0-5.1-1.46,23,23,0,0,0-3.08.17,3.75,3.75,0,0,0-2.13.95,3.44,3.44,0,0,0-.95,2.69,2.15,2.15,0,0,0,1,1.79A3.58,3.58,0,0,0,480.08,172Zm28-4.53a7.23,7.23,0,0,0,.62,3.3,1.93,1.93,0,0,0,1.68,1.12,9,9,0,0,0,1.06-.06,5,5,0,0,1,1-.11,1.15,1.15,0,0,1,1,.56,2,2,0,0,1,.45,1.23,2.39,2.39,0,0,1-1.29,2.13,6.54,6.54,0,0,1-3.36.73,6.17,6.17,0,0,1-3.08-.9,7.14,7.14,0,0,1-2.52-2.91,11.07,11.07,0,0,1-1-5q0-6.39.23-10.81.27-5.27.28-13.27a14.89,14.89,0,0,1,.28-3.53,2.39,2.39,0,0,1,1.06-1.18,3.29,3.29,0,0,1,1.62-.44,3.46,3.46,0,0,1,1.46.28,1.5,1.5,0,0,1,.9.89,5.9,5.9,0,0,1,.28,1.35,11.24,11.24,0,0,1,.11,1.79c0,1.53-.06,3-.17,4.42-.07,1.72-.11,3-.11,3.75Q508.05,160.66,508.05,167.44Z"/><path class="cls-4" d="M360.46,193.61q0,1.45-.06,3.42c0,1.27-.07,2.24-.11,2.91-.11,1.9-.17,3.81-.17,5.71,0,1.42.06,2.9.17,4.43a12.14,12.14,0,0,1,3.75-3.7,9.58,9.58,0,0,1,4.88-1.18,5.33,5.33,0,0,1,3.86,1.85,8.54,8.54,0,0,1,2.3,4.31c.11,1.46.16,3.23.16,5.32,0,1.35.08,3.1.23,5.27a6.75,6.75,0,0,0,.61,2.29,1.74,1.74,0,0,0,1.57,1.07,4,4,0,0,0,.79-.06,3.41,3.41,0,0,1,.61-.05,1.24,1.24,0,0,1,1.07.39,1.68,1.68,0,0,1,.33,1.12,2.15,2.15,0,0,1-1.34,2,5.81,5.81,0,0,1-8-2.68,15.2,15.2,0,0,1-1.06-4.93c-.15-2.06-.23-4.44-.23-7.17s-.91-4-2.74-4a4.41,4.41,0,0,0-3.08,1.62,12.34,12.34,0,0,0-2.52,4.2,14.68,14.68,0,0,0-1,5.38l.06,5.82a2.05,2.05,0,0,1-1,1.85,3.57,3.57,0,0,1-1.79.56,3.71,3.71,0,0,1-2.24-.73,2.21,2.21,0,0,1-1-1.73q.41-4.2.4-14.06,0-1.78-.28-13.27l-.17-5.15a2.64,2.64,0,0,1,1.12-2.13,3.77,3.77,0,0,1,2.52-1,2.42,2.42,0,0,1,1.79.56A2.37,2.37,0,0,1,360.46,193.61Zm48.84,32.82A2.43,2.43,0,0,1,408,228.5a4.47,4.47,0,0,1-2.4.84,9.73,9.73,0,0,1-3.42-.5,6.12,6.12,0,0,1-2.3-2,9.65,9.65,0,0,1-4,2,19.74,19.74,0,0,1-4.65.62,8.67,8.67,0,0,1-5.71-1.85,6.86,6.86,0,0,1-2.24-5.55,5.11,5.11,0,0,1,.84-2.85,8,8,0,0,1,2.29-2.35,13.08,13.08,0,0,1,3.7-1.63,15.07,15.07,0,0,1,4.31-.61,11.05,11.05,0,0,1,2.8.44,11.51,11.51,0,0,1,2.52,1v-.9c0-2-.48-3.4-1.45-4.14a7.49,7.49,0,0,0-4.71-1.18,5,5,0,0,0-1.9.39,20.9,20.9,0,0,0-2.07,1.07,6.34,6.34,0,0,1-3,.84,1.21,1.21,0,0,1-.95-.68,2.5,2.5,0,0,1-.45-1.28,3.44,3.44,0,0,1,1.51-2.8,10.38,10.38,0,0,1,3.7-1.74,13.81,13.81,0,0,1,3.8-.62,13.38,13.38,0,0,1,3.87.68,10.13,10.13,0,0,1,3.58,1.73,10,10,0,0,1,2.58,3.42,9.32,9.32,0,0,1,.95,4.2c0,.48,0,1.21-.11,2.18s-.11,1.94-.11,2.69a13.89,13.89,0,0,1-.12,1.51c-.07.82-.11,1.48-.11,2a1.61,1.61,0,0,0,.51,1.18,1.68,1.68,0,0,0,1.17.45l1.57-.06a1.11,1.11,0,0,1,.95.45A1.78,1.78,0,0,1,409.3,226.43Zm-18-1.46a14.05,14.05,0,0,0,4-.5,19.73,19.73,0,0,0,3.92-1.85,13.59,13.59,0,0,0,.28-2.52,12.64,12.64,0,0,0-5.1-1.46,9.55,9.55,0,0,0-4.09.84,3,3,0,0,0-1.79,3,2.21,2.21,0,0,0,.9,1.79A2.86,2.86,0,0,0,391.27,225ZM412.4,210a6.92,6.92,0,0,1-.78-1.34,3.81,3.81,0,0,1-.22-1.4,1.93,1.93,0,0,1,.72-1.52,3.1,3.1,0,0,1,2-.61,3.93,3.93,0,0,1,2.36.89,6.32,6.32,0,0,1,1.9,2.19,6.5,6.5,0,0,1,3.19-2.41,12.68,12.68,0,0,1,4.37-.73,8,8,0,0,1,4.76,1.57,11.25,11.25,0,0,1,3.53,4,10.55,10.55,0,0,1,1.29,4.93,16.66,16.66,0,0,1-.51,4.31,12.54,12.54,0,0,1-1.79,3.75,11,11,0,0,1-3.92,3.31,12.05,12.05,0,0,1-5.77,1.29,6.87,6.87,0,0,1-2.18-.45,11.08,11.08,0,0,1-2.13-1.07,66.21,66.21,0,0,0-.39,6.61,27,27,0,0,0,.17,3.19c.07,1.2.11,2.06.11,2.58a2,2,0,0,1-.84,1.79,3.07,3.07,0,0,1-1.85.62,2.91,2.91,0,0,1-2.69-1.12,6.26,6.26,0,0,1-.61-3.08c.15-3.21.33-6.18.56-8.91q.39-5.88.39-14.44a5.5,5.5,0,0,0-.56-2A8.31,8.31,0,0,0,412.4,210Zm7,11.2A3,3,0,0,0,421,223a5.48,5.48,0,0,0,2.41.67,6.07,6.07,0,0,0,4.76-1.73,6,6,0,0,0,1.51-2.41,13,13,0,0,0,.39-3.75,6.58,6.58,0,0,0-.78-3.36,5,5,0,0,0-1.9-2,4.16,4.16,0,0,0-2.13-.67,5.2,5.2,0,0,0-3.75,1.4,6.45,6.45,0,0,0-1.8,3.7A50.38,50.38,0,0,0,419.4,221.22Zm22.53-11.59a4.21,4.21,0,0,0-1,.11,6.54,6.54,0,0,1-.89.06,1.69,1.69,0,0,1-1.18-.56,1.64,1.64,0,0,1-.5-1,2.44,2.44,0,0,1,1.45-2.24,5.88,5.88,0,0,1,3-.84,4.77,4.77,0,0,1,2.63.89,5.27,5.27,0,0,1,2.08,2.19,8.31,8.31,0,0,1,3.58-2.52,12.75,12.75,0,0,1,4.42-.79,7.81,7.81,0,0,1,4.76,1.63,11.42,11.42,0,0,1,3.53,4.14,10.55,10.55,0,0,1,1.29,4.93,17.12,17.12,0,0,1-.5,4.31,12.83,12.83,0,0,1-1.8,3.75,10.93,10.93,0,0,1-3.92,3.31,12,12,0,0,1-5.76,1.29,6.87,6.87,0,0,1-2.19-.45,11.08,11.08,0,0,1-2.13-1.07,66.21,66.21,0,0,0-.39,6.61,29.27,29.27,0,0,0,.17,3.19c.07,1.2.11,2.06.11,2.58a2,2,0,0,1-.84,1.79,3.05,3.05,0,0,1-1.85.62,2.88,2.88,0,0,1-2.68-1.12,6.25,6.25,0,0,1-.62-3.08q.23-4.82.56-8.91.33-5,.34-15.56a6.2,6.2,0,0,0-.4-2.13C443,210,442.52,209.63,441.93,209.63ZM449,221.22a3,3,0,0,0,1.57,1.79,5.41,5.41,0,0,0,2.4.67,6.14,6.14,0,0,0,6.28-4.14,13,13,0,0,0,.39-3.75,6.48,6.48,0,0,0-.79-3.36,4.91,4.91,0,0,0-1.9-2,4.16,4.16,0,0,0-2.13-.67,5.2,5.2,0,0,0-3.75,1.4,6.44,6.44,0,0,0-1.79,3.7A48.51,48.51,0,0,0,449,221.22Zm27.34,19.32a7.88,7.88,0,0,1-3.58-.73,5.58,5.58,0,0,1-2.13-1.68,3,3,0,0,1-.67-1.68,1.86,1.86,0,0,1,.67-1.51,2.6,2.6,0,0,1,1.62-.5,1.92,1.92,0,0,1,1.07.33l.56.39a3.91,3.91,0,0,0,.78.45,1.66,1.66,0,0,0,.84.23c.82,0,1.5-.55,2-1.63a26.12,26.12,0,0,0,1.57-5.26,50,50,0,0,1-4.2-7.39l-1.29-3c-.19-.45-.71-1.61-1.57-3.47a51.84,51.84,0,0,0-2.46-5,6.18,6.18,0,0,1-.79-2.13,2.35,2.35,0,0,1,.95-2.07,4.06,4.06,0,0,1,2.3-.68,1.92,1.92,0,0,1,1.34.4,4.37,4.37,0,0,1,1.12,1.28,45.93,45.93,0,0,1,3.53,8.07q1.13,3.08,1.79,4.7a27.52,27.52,0,0,0,1.63,3.19,63,63,0,0,0,2.41-7.44c.59-2,1.08-3.63,1.45-4.82a28,28,0,0,1,1.35-3.36,4.89,4.89,0,0,1,1.23-1.62,2.74,2.74,0,0,1,1.73-.62,3.58,3.58,0,0,1,2,.73,1.92,1.92,0,0,1,1.12,1.62,3.16,3.16,0,0,1-.39,1.35q-2.19,5-3.87,9.52t-3.13,9.74c-.6,2-1.23,3.86-1.91,5.66a21.88,21.88,0,0,1-1.34,3.3,11.26,11.26,0,0,1-2.52,2.58A5.21,5.21,0,0,1,476.38,240.54Z"/></g></g></svg>